ffmpeg started on 2025-03-19 at 14:17:22
Report written to "D:\Convert\FFMetrics\reports\vmaf_report-6.txt"
Log level: 32
Command line:
ffmpeg -hide_banner -nostdin -r 24000/1001 -i "E:\\Convert\\out\\Nanatsu_no_Maken_ga_Shihai_suru_[02]_[AniLibria_TV]_[WEBRip_1080p_HEVC].mkv" -r 24000/1001 -i "E:\\Convert\\files\\Nanatsu_no_Maken_ga_Shihai_suru_[02]_[AniLibria_TV]_[WEBRip_1080p].mkv" -lavfi "[0:v]settb=AVTB,setpts=PTS-STARTPTS,format=pix_fmts=yuv420p10,fps=24000/1001,scale=1920:1080:flags=bicubic[main];[1:v]settb=AVTB,setpts=PTS-STARTPTS,format=pix_fmts=yuv420p,fps=24000/1001,scale=1920:1080:flags=bicubic[ref];[main][ref]libvmaf=eof_action=endall:log_path='D\\:/Convert/FFMetrics/logs/vmaf_logfile-6.txt':n_threads=32:pool=Mean:model=version=vmaf_v0.6.1" -f null -
Input #0, matroska,webm, from 'E:\Convert\out\Nanatsu_no_Maken_ga_Shihai_suru_[02]_[AniLibria_TV]_[WEBRip_1080p_HEVC].mkv':
  Metadata:
    encoder         : libebml v1.4.4 + libmatroska v1.7.1
    creation_time   : 2023-07-16T11:03:35.000000Z
  Duration: 00:23:40.12, start: 0.000000, bitrate: 1184 kb/s
  Stream #0:0: Video: hevc (Main 10), yuv420p10le(tv, bt709), 1920x1080 [SAR 1:1 DAR 16:9], 23.98 fps, 23.98 tbr, 1k tbn (default)
      Metadata:
        title           : Original [The Foxon]
  Stream #0:1(rus): Audio: aac (LC), 48000 Hz, stereo, fltp (default)
      Metadata:
        title           : AniLibria.TV
  Stream #0:2(jpn): Audio: aac (LC), 44100 Hz, stereo, fltp
      Metadata:
        title           : Original
  Stream #0:3(rus): Subtitle: ass (ssa) (default)
      Metadata:
        title           : Надписи
  Stream #0:4(rus): Subtitle: ass (ssa)
      Metadata:
        title           : Субтитры
  Stream #0:5: Attachment: ttf
      Metadata:
        filename        : AGPMOD.TTF
        mimetype        : application/x-truetype-font
  Stream #0:6: Attachment: ttf
      Metadata:
        filename        : DFPSNGyosho-W5-CP-Spec.ttf
        mimetype        : application/x-truetype-font
  Stream #0:7: Attachment: ttf
      Metadata:
        filename        : Modernist One.ttf
        mimetype        : application/x-truetype-font
  Stream #0:8: Attachment: ttf
      Metadata:
        filename        : 1125177.TTF
        mimetype        : application/x-truetype-font
  Stream #0:9: Attachment: ttf
      Metadata:
        filename        : Roboto-Medium.ttf
        mimetype        : application/x-truetype-font
  Stream #0:10: Attachment: ttf
      Metadata:
        filename        : Roboto-MediumItalic.ttf
        mimetype        : application/x-truetype-font
  Stream #0:11: Attachment: ttf
      Metadata:
        filename        : arial.ttf
        mimetype        : application/x-truetype-font
  Stream #0:12: Attachment: ttf
      Metadata:
        filename        : arialbd.ttf
        mimetype        : application/x-truetype-font
  Stream #0:13: Attachment: ttf
      Metadata:
        filename        : comic.ttf
        mimetype        : application/x-truetype-font
  Stream #0:14: Attachment: ttf
      Metadata:
        filename        : comicbd.ttf
        mimetype        : application/x-truetype-font
  Stream #0:15: Attachment: ttf
      Metadata:
        filename        : times.ttf
        mimetype        : application/x-truetype-font
  Stream #0:16: Attachment: ttf
      Metadata:
        filename        : timesbd.ttf
        mimetype        : application/x-truetype-font
  Stream #0:17: Attachment: ttf
      Metadata:
        filename        : trebuc.ttf
        mimetype        : application/x-truetype-font
  Stream #0:18: Attachment: ttf
      Metadata:
        filename        : trebucbd.ttf
        mimetype        : application/x-truetype-font
  Stream #0:19: Attachment: ttf
      Metadata:
        filename        : verdana.ttf
        mimetype        : application/x-truetype-font
  Stream #0:20: Attachment: ttf
      Metadata:
        filename        : verdanab.ttf
        mimetype        : application/x-truetype-font
  Stream #0:21: Attachment: ttf
      Metadata:
        filename        : CONSOLA.TTF
        mimetype        : application/x-truetype-font
  Stream #0:22: Attachment: ttf
      Metadata:
        filename        : CONSOLAB.TTF
        mimetype        : application/x-truetype-font
Input #1, matroska,webm, from 'E:\Convert\files\Nanatsu_no_Maken_ga_Shihai_suru_[02]_[AniLibria_TV]_[WEBRip_1080p].mkv':
  Metadata:
    encoder         : libebml v1.4.4 + libmatroska v1.7.1
    creation_time   : 2023-07-15T11:47:58.000000Z
  Duration: 00:23:40.12, start: 0.000000, bitrate: 8335 kb/s
  Stream #1:0: Video: h264 (High), yuv420p(tv, bt709, progressive), 1920x1080 [SAR 1:1 DAR 16:9], 23.98 fps, 23.98 tbr, 1k tbn (default)
      Metadata:
        title           : Original
        BPS             : 7971709
        DURATION        : 00:23:40.045000000
        NUMBER_OF_FRAMES: 34047
        NUMBER_OF_BYTES : 1415023222
        _STATISTICS_WRITING_APP: mkvmerge v77.0 ('Elemental') 64-bit
        _STATISTICS_WRITING_DATE_UTC: 2023-07-15 11:47:58
        _STATISTICS_TAGS: BPS DURATION NUMBER_OF_FRAMES NUMBER_OF_BYTES
  Stream #1:1(rus): Audio: aac (LC), 48000 Hz, stereo, fltp (default)
      Metadata:
        title           : AniLibria.TV
        BPS             : 191999
        DURATION        : 00:23:40.117000000
        NUMBER_OF_FRAMES: 66568
        NUMBER_OF_BYTES : 34082731
        _STATISTICS_WRITING_APP: mkvmerge v77.0 ('Elemental') 64-bit
        _STATISTICS_WRITING_DATE_UTC: 2023-07-15 11:47:58
        _STATISTICS_TAGS: BPS DURATION NUMBER_OF_FRAMES NUMBER_OF_BYTES
  Stream #1:2(jpn): Audio: aac (LC), 44100 Hz, stereo, fltp
      Metadata:
        title           : Original
        BPS             : 128000
        DURATION        : 00:23:40.109000000
        NUMBER_OF_FRAMES: 61159
        NUMBER_OF_BYTES : 22721748
        _STATISTICS_WRITING_APP: mkvmerge v77.0 ('Elemental') 64-bit
        _STATISTICS_WRITING_DATE_UTC: 2023-07-15 11:47:58
        _STATISTICS_TAGS: BPS DURATION NUMBER_OF_FRAMES NUMBER_OF_BYTES
  Stream #1:3(rus): Subtitle: ass (ssa) (default)
      Metadata:
        title           : Надписи
        BPS             : 340
        DURATION        : 00:22:14.570000000
        NUMBER_OF_FRAMES: 381
        NUMBER_OF_BYTES : 56799
        _STATISTICS_WRITING_APP: mkvmerge v77.0 ('Elemental') 64-bit
        _STATISTICS_WRITING_DATE_UTC: 2023-07-15 11:47:58
        _STATISTICS_TAGS: BPS DURATION NUMBER_OF_FRAMES NUMBER_OF_BYTES
  Stream #1:4(rus): Subtitle: ass (ssa)
      Metadata:
        title           : Субтитры
        BPS             : 489
        DURATION        : 00:23:37.340000000
        NUMBER_OF_FRAMES: 749
        NUMBER_OF_BYTES : 86800
        _STATISTICS_WRITING_APP: mkvmerge v77.0 ('Elemental') 64-bit
        _STATISTICS_WRITING_DATE_UTC: 2023-07-15 11:47:58
        _STATISTICS_TAGS: BPS DURATION NUMBER_OF_FRAMES NUMBER_OF_BYTES
  Stream #1:5: Attachment: ttf
      Metadata:
        filename        : AGPMOD.TTF
        mimetype        : application/x-truetype-font
  Stream #1:6: Attachment: ttf
      Metadata:
        filename        : DFPSNGyosho-W5-CP-Spec.ttf
        mimetype        : application/x-truetype-font
  Stream #1:7: Attachment: ttf
      Metadata:
        filename        : Modernist One.ttf
        mimetype        : application/x-truetype-font
  Stream #1:8: Attachment: ttf
      Metadata:
        filename        : 1125177.TTF
        mimetype        : application/x-truetype-font
  Stream #1:9: Attachment: ttf
      Metadata:
        filename        : Roboto-Medium.ttf
        mimetype        : application/x-truetype-font
  Stream #1:10: Attachment: ttf
      Metadata:
        filename        : Roboto-MediumItalic.ttf
        mimetype        : application/x-truetype-font
  Stream #1:11: Attachment: ttf
      Metadata:
        filename        : arial.ttf
        mimetype        : application/x-truetype-font
  Stream #1:12: Attachment: ttf
      Metadata:
        filename        : arialbd.ttf
        mimetype        : application/x-truetype-font
  Stream #1:13: Attachment: ttf
      Metadata:
        filename        : comic.ttf
        mimetype        : application/x-truetype-font
  Stream #1:14: Attachment: ttf
      Metadata:
        filename        : comicbd.ttf
        mimetype        : application/x-truetype-font
  Stream #1:15: Attachment: ttf
      Metadata:
        filename        : times.ttf
        mimetype        : application/x-truetype-font
  Stream #1:16: Attachment: ttf
      Metadata:
        filename        : timesbd.ttf
        mimetype        : application/x-truetype-font
  Stream #1:17: Attachment: ttf
      Metadata:
        filename        : trebuc.ttf
        mimetype        : application/x-truetype-font
  Stream #1:18: Attachment: ttf
      Metadata:
        filename        : trebucbd.ttf
        mimetype        : application/x-truetype-font
  Stream #1:19: Attachment: ttf
      Metadata:
        filename        : verdana.ttf
        mimetype        : application/x-truetype-font
  Stream #1:20: Attachment: ttf
      Metadata:
        filename        : verdanab.ttf
        mimetype        : application/x-truetype-font
  Stream #1:21: Attachment: ttf
      Metadata:
        filename        : CONSOLA.TTF
        mimetype        : application/x-truetype-font
  Stream #1:22: Attachment: ttf
      Metadata:
        filename        : CONSOLAB.TTF
        mimetype        : application/x-truetype-font
Stream mapping:
  Stream #0:0 (hevc) -> settb:default
  Stream #1:0 (h264) -> settb:default
  libvmaf:default -> Stream #0:0 (wrapped_avframe)
  Stream #0:1 -> #0:1 (aac (native) -> pcm_s16le (native))
Output #0, null, to 'pipe:':
  Metadata:
    encoder         : Lavf61.7.100
  Stream #0:0: Video: wrapped_avframe, yuv420p10le(tv, bt709, progressive), 1920x1080 [SAR 1:1 DAR 16:9], q=2-31, 200 kb/s, 23.98 fps, 23.98 tbn
      Metadata:
        encoder         : Lavc61.19.100 wrapped_avframe
  Stream #0:1(rus): Audio: pcm_s16le, 48000 Hz, stereo, s16, 1536 kb/s (default)
      Metadata:
        title           : AniLibria.TV
        encoder         : Lavc61.19.100 pcm_s16le
frame=   33 fps=0.0 q=-0.0 size=N/A time=00:00:01.37 bitrate=N/A speed=2.64x    frame=   75 fps= 73 q=-0.0 size=N/A time=00:00:03.12 bitrate=N/A speed=3.04x    frame=  118 fps= 76 q=-0.0 size=N/A time=00:00:04.92 bitrate=N/A speed=3.17x    frame=  156 fps= 75 q=-0.0 size=N/A time=00:00:06.50 bitrate=N/A speed=3.13x    frame=  200 fps= 77 q=-0.0 size=N/A time=00:00:08.34 bitrate=N/A speed=3.21x    frame=  241 fps= 77 q=-0.0 size=N/A time=00:00:10.05 bitrate=N/A speed=3.22x    frame=  282 fps= 78 q=-0.0 size=N/A time=00:00:11.76 bitrate=N/A speed=3.24x    frame=  322 fps= 78 q=-0.0 size=N/A time=00:00:13.43 bitrate=N/A speed=3.25x    frame=  365 fps= 78 q=-0.0 size=N/A time=00:00:15.22 bitrate=N/A speed=3.27x    frame=  409 fps= 79 q=-0.0 size=N/A time=00:00:17.05 bitrate=N/A speed=3.29x    frame=  450 fps= 79 q=-0.0 size=N/A time=00:00:18.76 bitrate=N/A speed= 3.3x    frame=  493 fps= 79 q=-0.0 size=N/A time=00:00:20.56 bitrate=N/A speed=3.31x    frame=  534 fps= 79 q=-0.0 size=N/A time=00:00:22.27 bitrate=N/A speed=3.31x    frame=  576 fps= 80 q=-0.0 size=N/A time=00:00:24.02 bitrate=N/A speed=3.32x    frame=  616 fps= 79 q=-0.0 size=N/A time=00:00:25.69 bitrate=N/A speed=3.31x    frame=  659 fps= 80 q=-0.0 size=N/A time=00:00:27.48 bitrate=N/A speed=3.33x    frame=  696 fps= 79 q=-0.0 size=N/A time=00:00:29.02 bitrate=N/A speed= 3.3x    frame=  738 fps= 79 q=-0.0 size=N/A time=00:00:30.78 bitrate=N/A speed=3.31x    frame=  777 fps= 79 q=-0.0 size=N/A time=00:00:32.40 bitrate=N/A speed= 3.3x    frame=  821 fps= 79 q=-0.0 size=N/A time=00:00:34.24 bitrate=N/A speed=3.31x    frame=  857 fps= 79 q=-0.0 size=N/A time=00:00:35.74 bitrate=N/A speed=3.29x    frame=  901 fps= 79 q=-0.0 size=N/A time=00:00:37.57 bitrate=N/A speed=3.31x    frame=  941 fps= 79 q=-0.0 size=N/A time=00:00:39.24 bitrate=N/A speed= 3.3x    frame=  984 fps= 79 q=-0.0 size=N/A time=00:00:41.04 bitrate=N/A speed=3.31x    frame= 1019 fps= 79 q=-0.0 size=N/A time=00:00:42.50 bitrate=N/A speed=3.29x    frame= 1064 fps= 79 q=-0.0 size=N/A time=00:00:44.37 bitrate=N/A speed= 3.3x    frame= 1101 fps= 79 q=-0.0 size=N/A time=00:00:45.92 bitrate=N/A speed=3.29x    frame= 1144 fps= 79 q=-0.0 size=N/A time=00:00:47.71 bitrate=N/A speed= 3.3x    frame= 1180 fps= 79 q=-0.0 size=N/A time=00:00:49.21 bitrate=N/A speed=3.29x    frame= 1227 fps= 79 q=-0.0 size=N/A time=00:00:51.17 bitrate=N/A speed= 3.3x    frame= 1266 fps= 79 q=-0.0 size=N/A time=00:00:52.80 bitrate=N/A speed= 3.3x    frame= 1309 fps= 79 q=-0.0 size=N/A time=00:00:54.59 bitrate=N/A speed= 3.3x    frame= 1348 fps= 79 q=-0.0 size=N/A time=00:00:56.22 bitrate=N/A speed= 3.3x    frame= 1389 fps= 79 q=-0.0 size=N/A time=00:00:57.93 bitrate=N/A speed= 3.3x    frame= 1429 fps= 79 q=-0.0 size=N/A time=00:00:59.60 bitrate=N/A speed=3.29x    frame= 1467 fps= 79 q=-0.0 size=N/A time=00:01:01.18 bitrate=N/A speed=3.29x    frame= 1507 fps= 79 q=-0.0 size=N/A time=00:01:02.85 bitrate=N/A speed=3.29x    frame= 1546 fps= 79 q=-0.0 size=N/A time=00:01:04.48 bitrate=N/A speed=3.29x    frame= 1589 fps= 79 q=-0.0 size=N/A time=00:01:06.27 bitrate=N/A speed=3.29x    frame= 1628 fps= 79 q=-0.0 size=N/A time=00:01:07.90 bitrate=N/A speed=3.29x    frame= 1667 fps= 79 q=-0.0 size=N/A time=00:01:09.52 bitrate=N/A speed=3.28x    frame= 1708 fps= 79 q=-0.0 size=N/A time=00:01:11.23 bitrate=N/A speed=3.28x    frame= 1751 fps= 79 q=-0.0 size=N/A time=00:01:13.03 bitrate=N/A speed=3.29x    frame= 1791 fps= 79 q=-0.0 size=N/A time=00:01:14.69 bitrate=N/A speed=3.29x    frame= 1835 fps= 79 q=-0.0 size=N/A time=00:01:16.53 bitrate=N/A speed=3.29x    frame= 1871 fps= 79 q=-0.0 size=N/A time=00:01:18.03 bitrate=N/A speed=3.29x    frame= 1915 fps= 79 q=-0.0 size=N/A time=00:01:19.87 bitrate=N/A speed=3.29x    frame= 1950 fps= 79 q=-0.0 size=N/A time=00:01:21.33 bitrate=N/A speed=3.28x    frame= 1993 fps= 79 q=-0.0 size=N/A time=00:01:23.12 bitrate=N/A speed=3.28x    frame= 2027 fps= 79 q=-0.0 size=N/A time=00:01:24.54 bitrate=N/A speed=3.28x    frame= 2072 fps= 79 q=-0.0 size=N/A time=00:01:26.41 bitrate=N/A speed=3.28x    frame= 2109 fps= 79 q=-0.0 size=N/A time=00:01:27.96 bitrate=N/A speed=3.28x    frame= 2154 fps= 79 q=-0.0 size=N/A time=00:01:29.83 bitrate=N/A speed=3.28x    frame= 2190 fps= 79 q=-0.0 size=N/A time=00:01:31.34 bitrate=N/A speed=3.28x    frame= 2234 fps= 79 q=-0.0 size=N/A time=00:01:33.17 bitrate=N/A speed=3.28x    frame= 2271 fps= 79 q=-0.0 size=N/A time=00:01:34.71 bitrate=N/A speed=3.27x    frame= 2313 fps= 79 q=-0.0 size=N/A time=00:01:36.47 bitrate=N/A speed=3.28x    frame= 2351 fps= 78 q=-0.0 size=N/A time=00:01:38.05 bitrate=N/A speed=3.27x    frame= 2393 fps= 79 q=-0.0 size=N/A time=00:01:39.80 bitrate=N/A speed=3.28x    frame= 2429 fps= 78 q=-0.0 size=N/A time=00:01:41.30 bitrate=N/A speed=3.27x    frame= 2470 fps= 78 q=-0.0 size=N/A time=00:01:43.01 bitrate=N/A speed=3.27x    frame= 2509 fps= 78 q=-0.0 size=N/A time=00:01:44.64 bitrate=N/A speed=3.27x    frame= 2550 fps= 78 q=-0.0 size=N/A time=00:01:46.35 bitrate=N/A speed=3.27x    frame= 2590 fps= 78 q=-0.0 size=N/A time=00:01:48.02 bitrate=N/A speed=3.27x    frame= 2631 fps= 78 q=-0.0 size=N/A time=00:01:49.73 bitrate=N/A speed=3.27x    frame= 2668 fps= 78 q=-0.0 size=N/A time=00:01:51.27 bitrate=N/A speed=3.27x    frame= 2709 fps= 78 q=-0.0 size=N/A time=00:01:52.98 bitrate=N/A speed=3.27x    frame= 2749 fps= 78 q=-0.0 size=N/A time=00:01:54.65 bitrate=N/A speed=3.27x    frame= 2790 fps= 78 q=-0.0 size=N/A time=00:01:56.36 bitrate=N/A speed=3.27x    frame= 2829 fps= 78 q=-0.0 size=N/A time=00:01:57.99 bitrate=N/A speed=3.26x    frame= 2867 fps= 78 q=-0.0 size=N/A time=00:01:59.57 bitrate=N/A speed=3.26x    frame= 2909 fps= 78 q=-0.0 size=N/A time=00:02:01.32 bitrate=N/A speed=3.26x    frame= 2945 fps= 78 q=-0.0 size=N/A time=00:02:02.83 bitrate=N/A speed=3.26x    frame= 2987 fps= 78 q=-0.0 size=N/A time=00:02:04.58 bitrate=N/A speed=3.26x    frame= 3026 fps= 78 q=-0.0 size=N/A time=00:02:06.20 bitrate=N/A speed=3.26x    frame= 3068 fps= 78 q=-0.0 size=N/A time=00:02:07.96 bitrate=N/A speed=3.26x    frame= 3105 fps= 78 q=-0.0 size=N/A time=00:02:09.50 bitrate=N/A speed=3.26x    frame= 3148 fps= 78 q=-0.0 size=N/A time=00:02:11.29 bitrate=N/A speed=3.26x    frame= 3184 fps= 78 q=-0.0 size=N/A time=00:02:12.79 bitrate=N/A speed=3.26x    frame= 3227 fps= 78 q=-0.0 size=N/A time=00:02:14.59 bitrate=N/A speed=3.26x    frame= 3265 fps= 78 q=-0.0 size=N/A time=00:02:16.17 bitrate=N/A speed=3.26x    frame= 3307 fps= 78 q=-0.0 size=N/A time=00:02:17.92 bitrate=N/A speed=3.26x    frame= 3344 fps= 78 q=-0.0 size=N/A time=00:02:19.47 bitrate=N/A speed=3.26x    frame= 3387 fps= 78 q=-0.0 size=N/A time=00:02:21.26 bitrate=N/A speed=3.26x    frame= 3423 fps= 78 q=-0.0 size=N/A time=00:02:22.76 bitrate=N/A speed=3.25x    frame= 3467 fps= 78 q=-0.0 size=N/A time=00:02:24.60 bitrate=N/A speed=3.26x    frame= 3504 fps= 78 q=-0.0 size=N/A time=00:02:26.14 bitrate=N/A speed=3.25x    frame= 3546 fps= 78 q=-0.0 size=N/A time=00:02:27.89 bitrate=N/A speed=3.26x    frame= 3585 fps= 78 q=-0.0 size=N/A time=00:02:29.52 bitrate=N/A speed=3.25x    frame= 3629 fps= 78 q=-0.0 size=N/A time=00:02:31.35 bitrate=N/A speed=3.26x    frame= 3665 fps= 78 q=-0.0 size=N/A time=00:02:32.86 bitrate=N/A speed=3.25x    frame= 3708 fps= 78 q=-0.0 size=N/A time=00:02:34.65 bitrate=N/A speed=3.26x    frame= 3744 fps= 78 q=-0.0 size=N/A time=00:02:36.15 bitrate=N/A speed=3.25x    frame= 3784 fps= 78 q=-0.0 size=N/A time=00:02:37.82 bitrate=N/A speed=3.25x    frame= 3821 fps= 78 q=-0.0 size=N/A time=00:02:39.36 bitrate=N/A speed=3.25x    frame= 3862 fps= 78 q=-0.0 size=N/A time=00:02:41.07 bitrate=N/A speed=3.25x    frame= 3901 fps= 78 q=-0.0 size=N/A time=00:02:42.70 bitrate=N/A speed=3.25x    frame= 3941 fps= 78 q=-0.0 size=N/A time=00:02:44.37 bitrate=N/A speed=3.25x    frame= 3982 fps= 78 q=-0.0 size=N/A time=00:02:46.08 bitrate=N/A speed=3.25x    frame= 4021 fps= 78 q=-0.0 size=N/A time=00:02:47.70 bitrate=N/A speed=3.25x    frame= 4062 fps= 78 q=-0.0 size=N/A time=00:02:49.41 bitrate=N/A speed=3.25x    frame= 4100 fps= 78 q=-0.0 size=N/A time=00:02:51.00 bitrate=N/A speed=3.25x    frame= 4142 fps= 78 q=-0.0 size=N/A time=00:02:52.75 bitrate=N/A speed=3.25x    frame= 4181 fps= 78 q=-0.0 size=N/A time=00:02:54.38 bitrate=N/A speed=3.25x    frame= 4221 fps= 78 q=-0.0 size=N/A time=00:02:56.05 bitrate=N/A speed=3.25x    frame= 4261 fps= 78 q=-0.0 size=N/A time=00:02:57.71 bitrate=N/A speed=3.25x    frame= 4304 fps= 78 q=-0.0 size=N/A time=00:02:59.51 bitrate=N/A speed=3.25x    frame= 4342 fps= 78 q=-0.0 size=N/A time=00:03:01.09 bitrate=N/A speed=3.25x    frame= 4385 fps= 78 q=-0.0 size=N/A time=00:03:02.89 bitrate=N/A speed=3.25x    frame= 4421 fps= 78 q=-0.0 size=N/A time=00:03:04.39 bitrate=N/A speed=3.25x    frame= 4464 fps= 78 q=-0.0 size=N/A time=00:03:06.18 bitrate=N/A speed=3.25x    frame= 4499 fps= 78 q=-0.0 size=N/A time=00:03:07.64 bitrate=N/A speed=3.25x    frame= 4544 fps= 78 q=-0.0 size=N/A time=00:03:09.52 bitrate=N/A speed=3.25x    frame= 4582 fps= 78 q=-0.0 size=N/A time=00:03:11.10 bitrate=N/A speed=3.25x    frame= 4626 fps= 78 q=-0.0 size=N/A time=00:03:12.94 bitrate=N/A speed=3.25x    frame= 4662 fps= 78 q=-0.0 size=N/A time=00:03:14.44 bitrate=N/A speed=3.25x    frame= 4706 fps= 78 q=-0.0 size=N/A time=00:03:16.27 bitrate=N/A speed=3.25x    frame= 4742 fps= 78 q=-0.0 size=N/A time=00:03:17.78 bitrate=N/A speed=3.25x    frame= 4785 fps= 78 q=-0.0 size=N/A time=00:03:19.57 bitrate=N/A speed=3.25x    frame= 4822 fps= 78 q=-0.0 size=N/A time=00:03:21.11 bitrate=N/A speed=3.25x    frame= 4865 fps= 78 q=-0.0 size=N/A time=00:03:22.91 bitrate=N/A speed=3.25x    frame= 4901 fps= 78 q=-0.0 size=N/A time=00:03:24.41 bitrate=N/A speed=3.25x    frame= 4944 fps= 78 q=-0.0 size=N/A time=00:03:26.20 bitrate=N/A speed=3.25x    frame= 4981 fps= 78 q=-0.0 size=N/A time=00:03:27.74 bitrate=N/A speed=3.25x    frame= 5022 fps= 78 q=-0.0 size=N/A time=00:03:29.45 bitrate=N/A speed=3.25x    frame= 5059 fps= 78 q=-0.0 size=N/A time=00:03:31.00 bitrate=N/A speed=3.24x    frame= 5100 fps= 78 q=-0.0 size=N/A time=00:03:32.71 bitrate=N/A speed=3.25x    frame= 5138 fps= 78 q=-0.0 size=N/A time=00:03:34.29 bitrate=N/A speed=3.24x    frame= 5180 fps= 78 q=-0.0 size=N/A time=00:03:36.04 bitrate=N/A speed=3.25x    frame= 5219 fps= 78 q=-0.0 size=N/A time=00:03:37.67 bitrate=N/A speed=3.24x    frame= 5259 fps= 78 q=-0.0 size=N/A time=00:03:39.34 bitrate=N/A speed=3.24x    frame= 5299 fps= 78 q=-0.0 size=N/A time=00:03:41.01 bitrate=N/A speed=3.24x    frame= 5341 fps= 78 q=-0.0 size=N/A time=00:03:42.76 bitrate=N/A speed=3.25x    frame= 5381 fps= 78 q=-0.0 size=N/A time=00:03:44.43 bitrate=N/A speed=3.25x    frame= 5421 fps= 78 q=-0.0 size=N/A time=00:03:46.10 bitrate=N/A speed=3.25x    frame= 5460 fps= 78 q=-0.0 size=N/A time=00:03:47.72 bitrate=N/A speed=3.25x    frame= 5499 fps= 78 q=-0.0 size=N/A time=00:03:49.35 bitrate=N/A speed=3.24x    frame= 5540 fps= 78 q=-0.0 size=N/A time=00:03:51.06 bitrate=N/A speed=3.24x    frame= 5577 fps= 78 q=-0.0 size=N/A time=00:03:52.60 bitrate=N/A speed=3.24x    frame= 5623 fps= 78 q=-0.0 size=N/A time=00:03:54.52 bitrate=N/A speed=3.25x    frame= 5658 fps= 78 q=-0.0 size=N/A time=00:03:55.98 bitrate=N/A speed=3.24x    frame= 5704 fps= 78 q=-0.0 size=N/A time=00:03:57.90 bitrate=N/A speed=3.25x    frame= 5741 fps= 78 q=-0.0 size=N/A time=00:03:59.44 bitrate=N/A speed=3.25x    frame= 5784 fps= 78 q=-0.0 size=N/A time=00:04:01.24 bitrate=N/A speed=3.25x    frame= 5820 fps= 78 q=-0.0 size=N/A time=00:04:02.74 bitrate=N/A speed=3.24x    frame= 5863 fps= 78 q=-0.0 size=N/A time=00:04:04.53 bitrate=N/A speed=3.25x    frame= 5902 fps= 78 q=-0.0 size=N/A time=00:04:06.16 bitrate=N/A speed=3.25x    frame= 5947 fps= 78 q=-0.0 size=N/A time=00:04:08.03 bitrate=N/A speed=3.25x    frame= 5983 fps= 78 q=-0.0 size=N/A time=00:04:09.54 bitrate=N/A speed=3.25x    frame= 6027 fps= 78 q=-0.0 size=N/A time=00:04:11.37 bitrate=N/A speed=3.25x    frame= 6064 fps= 78 q=-0.0 size=N/A time=00:04:12.91 bitrate=N/A speed=3.25x    frame= 6106 fps= 78 q=-0.0 size=N/A time=00:04:14.67 bitrate=N/A speed=3.25x    frame= 6143 fps= 78 q=-0.0 size=N/A time=00:04:16.21 bitrate=N/A speed=3.25x    frame= 6186 fps= 78 q=-0.0 size=N/A time=00:04:18.00 bitrate=N/A speed=3.25x    frame= 6226 fps= 78 q=-0.0 size=N/A time=00:04:19.67 bitrate=N/A speed=3.25x    frame= 6269 fps= 78 q=-0.0 size=N/A time=00:04:21.46 bitrate=N/A speed=3.25x    frame= 6307 fps= 78 q=-0.0 size=N/A time=00:04:23.05 bitrate=N/A speed=3.25x    frame= 6348 fps= 78 q=-0.0 size=N/A time=00:04:24.76 bitrate=N/A speed=3.25x    frame= 6388 fps= 78 q=-0.0 size=N/A time=00:04:26.43 bitrate=N/A speed=3.25x    frame= 6432 fps= 78 q=-0.0 size=N/A time=00:04:28.26 bitrate=N/A speed=3.25x    frame= 6470 fps= 78 q=-0.0 size=N/A time=00:04:29.85 bitrate=N/A speed=3.25x    frame= 6511 fps= 78 q=-0.0 size=N/A time=00:04:31.56 bitrate=N/A speed=3.25x    frame= 6552 fps= 78 q=-0.0 size=N/A time=00:04:33.27 bitrate=N/A speed=3.25x    frame= 6592 fps= 78 q=-0.0 size=N/A time=00:04:34.94 bitrate=N/A speed=3.25x    frame= 6632 fps= 78 q=-0.0 size=N/A time=00:04:36.60 bitrate=N/A speed=3.25x    frame= 6672 fps= 78 q=-0.0 size=N/A time=00:04:38.27 bitrate=N/A speed=3.25x    frame= 6714 fps= 78 q=-0.0 size=N/A time=00:04:40.02 bitrate=N/A speed=3.25x    frame= 6754 fps= 78 q=-0.0 size=N/A time=00:04:41.69 bitrate=N/A speed=3.25x    frame= 6794 fps= 78 q=-0.0 size=N/A time=00:04:43.36 bitrate=N/A speed=3.25x    frame= 6834 fps= 78 q=-0.0 size=N/A time=00:04:45.03 bitrate=N/A speed=3.25x    frame= 6876 fps= 78 q=-0.0 size=N/A time=00:04:46.78 bitrate=N/A speed=3.25x    frame= 6912 fps= 78 q=-0.0 size=N/A time=00:04:48.28 bitrate=N/A speed=3.25x    frame= 6955 fps= 78 q=-0.0 size=N/A time=00:04:50.08 bitrate=N/A speed=3.25x    frame= 6991 fps= 78 q=-0.0 size=N/A time=00:04:51.58 bitrate=N/A speed=3.25x    frame= 7036 fps= 78 q=-0.0 size=N/A time=00:04:53.45 bitrate=N/A speed=3.25x    frame= 7072 fps= 78 q=-0.0 size=N/A time=00:04:54.96 bitrate=N/A speed=3.25x    frame= 7115 fps= 78 q=-0.0 size=N/A time=00:04:56.75 bitrate=N/A speed=3.25x    frame= 7151 fps= 78 q=-0.0 size=N/A time=00:04:58.25 bitrate=N/A speed=3.25x    frame= 7194 fps= 78 q=-0.0 size=N/A time=00:05:00.04 bitrate=N/A speed=3.25x    frame= 7231 fps= 78 q=-0.0 size=N/A time=00:05:01.59 bitrate=N/A speed=3.25x    frame= 7276 fps= 78 q=-0.0 size=N/A time=00:05:03.46 bitrate=N/A speed=3.25x    frame= 7316 fps= 78 q=-0.0 size=N/A time=00:05:05.13 bitrate=N/A speed=3.25x    frame= 7359 fps= 78 q=-0.0 size=N/A time=00:05:06.93 bitrate=N/A speed=3.25x    frame= 7397 fps= 78 q=-0.0 size=N/A time=00:05:08.51 bitrate=N/A speed=3.25x    frame= 7440 fps= 78 q=-0.0 size=N/A time=00:05:10.31 bitrate=N/A speed=3.25x    frame= 7479 fps= 78 q=-0.0 size=N/A time=00:05:11.93 bitrate=N/A speed=3.25x    frame= 7522 fps= 78 q=-0.0 size=N/A time=00:05:13.73 bitrate=N/A speed=3.25x    frame= 7561 fps= 78 q=-0.0 size=N/A time=00:05:15.35 bitrate=N/A speed=3.25x    frame= 7604 fps= 78 q=-0.0 size=N/A time=00:05:17.15 bitrate=N/A speed=3.25x    frame= 7642 fps= 78 q=-0.0 size=N/A time=00:05:18.73 bitrate=N/A speed=3.25x    frame= 7685 fps= 78 q=-0.0 size=N/A time=00:05:20.52 bitrate=N/A speed=3.25x    frame= 7724 fps= 78 q=-0.0 size=N/A time=00:05:22.15 bitrate=N/A speed=3.25x    frame= 7767 fps= 78 q=-0.0 size=N/A time=00:05:23.94 bitrate=N/A speed=3.25x    frame= 7805 fps= 78 q=-0.0 size=N/A time=00:05:25.53 bitrate=N/A speed=3.25x    frame= 7847 fps= 78 q=-0.0 size=N/A time=00:05:27.28 bitrate=N/A speed=3.25x    frame= 7889 fps= 78 q=-0.0 size=N/A time=00:05:29.03 bitrate=N/A speed=3.25x    frame= 7929 fps= 78 q=-0.0 size=N/A time=00:05:30.70 bitrate=N/A speed=3.25x    frame= 7968 fps= 78 q=-0.0 size=N/A time=00:05:32.33 bitrate=N/A speed=3.25x    frame= 8007 fps= 78 q=-0.0 size=N/A time=00:05:33.95 bitrate=N/A speed=3.25x    frame= 8050 fps= 78 q=-0.0 size=N/A time=00:05:35.75 bitrate=N/A speed=3.25x    frame= 8088 fps= 78 q=-0.0 size=N/A time=00:05:37.33 bitrate=N/A speed=3.25x    frame= 8133 fps= 78 q=-0.0 size=N/A time=00:05:39.21 bitrate=N/A speed=3.25x    frame= 8169 fps= 78 q=-0.0 size=N/A time=00:05:40.71 bitrate=N/A speed=3.25x    frame= 8213 fps= 78 q=-0.0 size=N/A time=00:05:42.55 bitrate=N/A speed=3.25x    frame= 8251 fps= 78 q=-0.0 size=N/A time=00:05:44.13 bitrate=N/A speed=3.25x    frame= 8295 fps= 78 q=-0.0 size=N/A time=00:05:45.97 bitrate=N/A speed=3.25x    frame= 8331 fps= 78 q=-0.0 size=N/A time=00:05:47.47 bitrate=N/A speed=3.25x    frame= 8376 fps= 78 q=-0.0 size=N/A time=00:05:49.34 bitrate=N/A speed=3.25x    frame= 8412 fps= 78 q=-0.0 size=N/A time=00:05:50.85 bitrate=N/A speed=3.25x    frame= 8458 fps= 78 q=-0.0 size=N/A time=00:05:52.76 bitrate=N/A speed=3.26x    frame= 8495 fps= 78 q=-0.0 size=N/A time=00:05:54.31 bitrate=N/A speed=3.25x    frame= 8541 fps= 78 q=-0.0 size=N/A time=00:05:56.23 bitrate=N/A speed=3.26x    frame= 8576 fps= 78 q=-0.0 size=N/A time=00:05:57.69 bitrate=N/A speed=3.25x    frame= 8619 fps= 78 q=-0.0 size=N/A time=00:05:59.48 bitrate=N/A speed=3.26x    frame= 8657 fps= 78 q=-0.0 size=N/A time=00:06:01.06 bitrate=N/A speed=3.25x    frame= 8699 fps= 78 q=-0.0 size=N/A time=00:06:02.82 bitrate=N/A speed=3.26x    frame= 8736 fps= 78 q=-0.0 size=N/A time=00:06:04.36 bitrate=N/A speed=3.25x    frame= 8780 fps= 78 q=-0.0 size=N/A time=00:06:06.19 bitrate=N/A speed=3.26x    frame= 8816 fps= 78 q=-0.0 size=N/A time=00:06:07.70 bitrate=N/A speed=3.25x    frame= 8858 fps= 78 q=-0.0 size=N/A time=00:06:09.45 bitrate=N/A speed=3.25x    frame= 8895 fps= 78 q=-0.0 size=N/A time=00:06:10.99 bitrate=N/A speed=3.25x    frame= 8936 fps= 78 q=-0.0 size=N/A time=00:06:12.70 bitrate=N/A speed=3.25x    frame= 8977 fps= 78 q=-0.0 size=N/A time=00:06:14.41 bitrate=N/A speed=3.25x    frame= 9017 fps= 78 q=-0.0 size=N/A time=00:06:16.08 bitrate=N/A speed=3.25x    frame= 9057 fps= 78 q=-0.0 size=N/A time=00:06:17.75 bitrate=N/A speed=3.25x    frame= 9099 fps= 78 q=-0.0 size=N/A time=00:06:19.50 bitrate=N/A speed=3.25x    frame= 9140 fps= 78 q=-0.0 size=N/A time=00:06:21.21 bitrate=N/A speed=3.25x    frame= 9181 fps= 78 q=-0.0 size=N/A time=00:06:22.92 bitrate=N/A speed=3.25x    frame= 9222 fps= 78 q=-0.0 size=N/A time=00:06:24.63 bitrate=N/A speed=3.25x    frame= 9261 fps= 78 q=-0.0 size=N/A time=00:06:26.26 bitrate=N/A speed=3.25x    frame= 9303 fps= 78 q=-0.0 size=N/A time=00:06:28.01 bitrate=N/A speed=3.25x    frame= 9340 fps= 78 q=-0.0 size=N/A time=00:06:29.55 bitrate=N/A speed=3.25x    frame= 9381 fps= 78 q=-0.0 size=N/A time=00:06:31.26 bitrate=N/A speed=3.25x    frame= 9419 fps= 78 q=-0.0 size=N/A time=00:06:32.85 bitrate=N/A speed=3.25x    frame= 9462 fps= 78 q=-0.0 size=N/A time=00:06:34.64 bitrate=N/A speed=3.25x    frame= 9498 fps= 78 q=-0.0 size=N/A time=00:06:36.14 bitrate=N/A speed=3.25x    frame= 9543 fps= 78 q=-0.0 size=N/A time=00:06:38.02 bitrate=N/A speed=3.25x    frame= 9579 fps= 78 q=-0.0 size=N/A time=00:06:39.52 bitrate=N/A speed=3.25x    frame= 9623 fps= 78 q=-0.0 size=N/A time=00:06:41.35 bitrate=N/A speed=3.25x    frame= 9661 fps= 78 q=-0.0 size=N/A time=00:06:42.94 bitrate=N/A speed=3.25x    frame= 9705 fps= 78 q=-0.0 size=N/A time=00:06:44.77 bitrate=N/A speed=3.25x    frame= 9742 fps= 78 q=-0.0 size=N/A time=00:06:46.32 bitrate=N/A speed=3.25x    frame= 9786 fps= 78 q=-0.0 size=N/A time=00:06:48.15 bitrate=N/A speed=3.25x    frame= 9820 fps= 78 q=-0.0 size=N/A time=00:06:49.57 bitrate=N/A speed=3.25x    frame= 9866 fps= 78 q=-0.0 size=N/A time=00:06:51.49 bitrate=N/A speed=3.25x    frame= 9904 fps= 78 q=-0.0 size=N/A time=00:06:53.07 bitrate=N/A speed=3.25x    frame= 9947 fps= 78 q=-0.0 size=N/A time=00:06:54.87 bitrate=N/A speed=3.25x    frame= 9983 fps= 78 q=-0.0 size=N/A time=00:06:56.37 bitrate=N/A speed=3.25x    frame=10027 fps= 78 q=-0.0 size=N/A time=00:06:58.20 bitrate=N/A speed=3.25x    frame=10066 fps= 78 q=-0.0 size=N/A time=00:06:59.83 bitrate=N/A speed=3.25x    frame=10109 fps= 78 q=-0.0 size=N/A time=00:07:01.62 bitrate=N/A speed=3.26x    frame=10147 fps= 78 q=-0.0 size=N/A time=00:07:03.21 bitrate=N/A speed=3.25x    frame=10188 fps= 78 q=-0.0 size=N/A time=00:07:04.92 bitrate=N/A speed=3.25x    frame=10227 fps= 78 q=-0.0 size=N/A time=00:07:06.55 bitrate=N/A speed=3.25x    frame=10267 fps= 78 q=-0.0 size=N/A time=00:07:08.21 bitrate=N/A speed=3.25x    frame=10306 fps= 78 q=-0.0 size=N/A time=00:07:09.84 bitrate=N/A speed=3.25x    frame=10346 fps= 78 q=-0.0 size=N/A time=00:07:11.51 bitrate=N/A speed=3.25x    frame=10386 fps= 78 q=-0.0 size=N/A time=00:07:13.18 bitrate=N/A speed=3.25x    frame=10423 fps= 78 q=-0.0 size=N/A time=00:07:14.72 bitrate=N/A speed=3.25x    frame=10463 fps= 78 q=-0.0 size=N/A time=00:07:16.39 bitrate=N/A speed=3.25x    frame=10502 fps= 78 q=-0.0 size=N/A time=00:07:18.02 bitrate=N/A speed=3.25x    frame=10540 fps= 78 q=-0.0 size=N/A time=00:07:19.60 bitrate=N/A speed=3.25x    frame=10577 fps= 78 q=-0.0 size=N/A time=00:07:21.14 bitrate=N/A speed=3.25x    frame=10617 fps= 78 q=-0.0 size=N/A time=00:07:22.81 bitrate=N/A speed=3.25x    frame=10656 fps= 78 q=-0.0 size=N/A time=00:07:24.44 bitrate=N/A speed=3.25x    frame=10699 fps= 78 q=-0.0 size=N/A time=00:07:26.23 bitrate=N/A speed=3.25x    frame=10738 fps= 78 q=-0.0 size=N/A time=00:07:27.86 bitrate=N/A speed=3.25x    frame=10781 fps= 78 q=-0.0 size=N/A time=00:07:29.65 bitrate=N/A speed=3.25x    frame=10820 fps= 78 q=-0.0 size=N/A time=00:07:31.28 bitrate=N/A speed=3.25x    frame=10864 fps= 78 q=-0.0 size=N/A time=00:07:33.11 bitrate=N/A speed=3.25x    frame=10903 fps= 78 q=-0.0 size=N/A time=00:07:34.74 bitrate=N/A speed=3.25x    frame=10949 fps= 78 q=-0.0 size=N/A time=00:07:36.66 bitrate=N/A speed=3.25x    frame=10988 fps= 78 q=-0.0 size=N/A time=00:07:38.29 bitrate=N/A speed=3.25x    frame=11035 fps= 78 q=-0.0 size=N/A time=00:07:40.25 bitrate=N/A speed=3.25x    frame=11072 fps= 78 q=-0.0 size=N/A time=00:07:41.79 bitrate=N/A speed=3.25x    frame=11118 fps= 78 q=-0.0 size=N/A time=00:07:43.71 bitrate=N/A speed=3.26x    frame=11157 fps= 78 q=-0.0 size=N/A time=00:07:45.33 bitrate=N/A speed=3.26x    frame=11202 fps= 78 q=-0.0 size=N/A time=00:07:47.21 bitrate=N/A speed=3.26x    frame=11241 fps= 78 q=-0.0 size=N/A time=00:07:48.84 bitrate=N/A speed=3.26x    frame=11287 fps= 78 q=-0.0 size=N/A time=00:07:50.76 bitrate=N/A speed=3.26x    frame=11324 fps= 78 q=-0.0 size=N/A time=00:07:52.30 bitrate=N/A speed=3.26x    frame=11370 fps= 78 q=-0.0 size=N/A time=00:07:54.22 bitrate=N/A speed=3.26x    frame=11410 fps= 78 q=-0.0 size=N/A time=00:07:55.89 bitrate=N/A speed=3.26x    frame=11454 fps= 78 q=-0.0 size=N/A time=00:07:57.72 bitrate=N/A speed=3.26x    frame=11493 fps= 78 q=-0.0 size=N/A time=00:07:59.35 bitrate=N/A speed=3.26x    frame=11538 fps= 78 q=-0.0 size=N/A time=00:08:01.23 bitrate=N/A speed=3.26x    frame=11579 fps= 78 q=-0.0 size=N/A time=00:08:02.94 bitrate=N/A speed=3.26x    frame=11620 fps= 78 q=-0.0 size=N/A time=00:08:04.65 bitrate=N/A speed=3.26x    frame=11661 fps= 78 q=-0.0 size=N/A time=00:08:06.36 bitrate=N/A speed=3.26x    frame=11701 fps= 78 q=-0.0 size=N/A time=00:08:08.02 bitrate=N/A speed=3.26x    frame=11741 fps= 78 q=-0.0 size=N/A time=00:08:09.69 bitrate=N/A speed=3.26x    frame=11783 fps= 78 q=-0.0 size=N/A time=00:08:11.44 bitrate=N/A speed=3.26x    frame=11826 fps= 78 q=-0.0 size=N/A time=00:08:13.24 bitrate=N/A speed=3.26x    frame=11867 fps= 78 q=-0.0 size=N/A time=00:08:14.95 bitrate=N/A speed=3.26x    frame=11910 fps= 78 q=-0.0 size=N/A time=00:08:16.74 bitrate=N/A speed=3.26x    frame=11948 fps= 78 q=-0.0 size=N/A time=00:08:18.33 bitrate=N/A speed=3.26x    frame=11993 fps= 78 q=-0.0 size=N/A time=00:08:20.20 bitrate=N/A speed=3.26x    frame=12030 fps= 78 q=-0.0 size=N/A time=00:08:21.75 bitrate=N/A speed=3.26x    frame=12073 fps= 78 q=-0.0 size=N/A time=00:08:23.54 bitrate=N/A speed=3.26x    frame=12110 fps= 78 q=-0.0 size=N/A time=00:08:25.08 bitrate=N/A speed=3.26x    frame=12155 fps= 78 q=-0.0 size=N/A time=00:08:26.96 bitrate=N/A speed=3.26x    frame=12192 fps= 78 q=-0.0 size=N/A time=00:08:28.50 bitrate=N/A speed=3.26x    frame=12235 fps= 78 q=-0.0 size=N/A time=00:08:30.30 bitrate=N/A speed=3.26x    frame=12271 fps= 78 q=-0.0 size=N/A time=00:08:31.80 bitrate=N/A speed=3.26x    frame=12314 fps= 78 q=-0.0 size=N/A time=00:08:33.59 bitrate=N/A speed=3.26x    frame=12351 fps= 78 q=-0.0 size=N/A time=00:08:35.13 bitrate=N/A speed=3.26x    frame=12395 fps= 78 q=-0.0 size=N/A time=00:08:36.97 bitrate=N/A speed=3.26x    frame=12430 fps= 78 q=-0.0 size=N/A time=00:08:38.43 bitrate=N/A speed=3.26x    frame=12476 fps= 78 q=-0.0 size=N/A time=00:08:40.35 bitrate=N/A speed=3.26x    frame=12513 fps= 78 q=-0.0 size=N/A time=00:08:41.89 bitrate=N/A speed=3.26x    frame=12553 fps= 78 q=-0.0 size=N/A time=00:08:43.56 bitrate=N/A speed=3.26x    frame=12590 fps= 78 q=-0.0 size=N/A time=00:08:45.10 bitrate=N/A speed=3.26x    frame=12631 fps= 78 q=-0.0 size=N/A time=00:08:46.81 bitrate=N/A speed=3.26x    frame=12667 fps= 78 q=-0.0 size=N/A time=00:08:48.31 bitrate=N/A speed=3.26x    frame=12705 fps= 78 q=-0.0 size=N/A time=00:08:49.90 bitrate=N/A speed=3.26x    frame=12743 fps= 78 q=-0.0 size=N/A time=00:08:51.48 bitrate=N/A speed=3.26x    frame=12785 fps= 78 q=-0.0 size=N/A time=00:08:53.24 bitrate=N/A speed=3.26x    frame=12822 fps= 78 q=-0.0 size=N/A time=00:08:54.78 bitrate=N/A speed=3.26x    frame=12857 fps= 78 q=-0.0 size=N/A time=00:08:56.24 bitrate=N/A speed=3.26x    frame=12893 fps= 78 q=-0.0 size=N/A time=00:08:57.74 bitrate=N/A speed=3.26x    frame=12930 fps= 78 q=-0.0 size=N/A time=00:08:59.28 bitrate=N/A speed=3.26x    frame=12970 fps= 78 q=-0.0 size=N/A time=00:09:00.95 bitrate=N/A speed=3.26x    frame=13006 fps= 78 q=-0.0 size=N/A time=00:09:02.45 bitrate=N/A speed=3.25x    frame=13049 fps= 78 q=-0.0 size=N/A time=00:09:04.25 bitrate=N/A speed=3.25x    frame=13085 fps= 78 q=-0.0 size=N/A time=00:09:05.75 bitrate=N/A speed=3.25x    frame=13127 fps= 78 q=-0.0 size=N/A time=00:09:07.50 bitrate=N/A speed=3.25x    frame=13163 fps= 78 q=-0.0 size=N/A time=00:09:09.00 bitrate=N/A speed=3.25x    frame=13204 fps= 78 q=-0.0 size=N/A time=00:09:10.71 bitrate=N/A speed=3.25x    frame=13243 fps= 78 q=-0.0 size=N/A time=00:09:12.34 bitrate=N/A speed=3.25x    frame=13286 fps= 78 q=-0.0 size=N/A time=00:09:14.13 bitrate=N/A speed=3.25x    frame=13321 fps= 78 q=-0.0 size=N/A time=00:09:15.59 bitrate=N/A speed=3.25x    frame=13363 fps= 78 q=-0.0 size=N/A time=00:09:17.34 bitrate=N/A speed=3.25x    frame=13401 fps= 78 q=-0.0 size=N/A time=00:09:18.93 bitrate=N/A speed=3.25x    frame=13444 fps= 78 q=-0.0 size=N/A time=00:09:20.72 bitrate=N/A speed=3.25x    frame=13483 fps= 78 q=-0.0 size=N/A time=00:09:22.35 bitrate=N/A speed=3.25x    frame=13525 fps= 78 q=-0.0 size=N/A time=00:09:24.10 bitrate=N/A speed=3.25x    frame=13563 fps= 78 q=-0.0 size=N/A time=00:09:25.69 bitrate=N/A speed=3.25x    frame=13606 fps= 78 q=-0.0 size=N/A time=00:09:27.48 bitrate=N/A speed=3.25x    frame=13642 fps= 78 q=-0.0 size=N/A time=00:09:28.98 bitrate=N/A speed=3.25x    frame=13683 fps= 78 q=-0.0 size=N/A time=00:09:30.69 bitrate=N/A speed=3.25x    frame=13718 fps= 78 q=-0.0 size=N/A time=00:09:32.15 bitrate=N/A speed=3.25x    frame=13760 fps= 78 q=-0.0 size=N/A time=00:09:33.90 bitrate=N/A speed=3.25x    frame=13798 fps= 78 q=-0.0 size=N/A time=00:09:35.49 bitrate=N/A speed=3.25x    frame=13840 fps= 78 q=-0.0 size=N/A time=00:09:37.24 bitrate=N/A speed=3.25x    frame=13877 fps= 78 q=-0.0 size=N/A time=00:09:38.78 bitrate=N/A speed=3.25x    frame=13920 fps= 78 q=-0.0 size=N/A time=00:09:40.58 bitrate=N/A speed=3.25x    frame=13956 fps= 78 q=-0.0 size=N/A time=00:09:42.08 bitrate=N/A speed=3.25x    frame=13995 fps= 78 q=-0.0 size=N/A time=00:09:43.70 bitrate=N/A speed=3.25x    frame=14035 fps= 78 q=-0.0 size=N/A time=00:09:45.37 bitrate=N/A speed=3.25x    frame=14074 fps= 78 q=-0.0 size=N/A time=00:09:47.00 bitrate=N/A speed=3.25x    frame=14117 fps= 78 q=-0.0 size=N/A time=00:09:48.79 bitrate=N/A speed=3.25x    frame=14155 fps= 78 q=-0.0 size=N/A time=00:09:50.38 bitrate=N/A speed=3.25x    frame=14198 fps= 78 q=-0.0 size=N/A time=00:09:52.17 bitrate=N/A speed=3.25x    frame=14239 fps= 78 q=-0.0 size=N/A time=00:09:53.88 bitrate=N/A speed=3.25x    frame=14285 fps= 78 q=-0.0 size=N/A time=00:09:55.80 bitrate=N/A speed=3.25x    frame=14324 fps= 78 q=-0.0 size=N/A time=00:09:57.43 bitrate=N/A speed=3.25x    frame=14370 fps= 78 q=-0.0 size=N/A time=00:09:59.34 bitrate=N/A speed=3.25x    frame=14408 fps= 78 q=-0.0 size=N/A time=00:10:00.93 bitrate=N/A speed=3.25x    frame=14452 fps= 78 q=-0.0 size=N/A time=00:10:02.76 bitrate=N/A speed=3.25x    frame=14493 fps= 78 q=-0.0 size=N/A time=00:10:04.47 bitrate=N/A speed=3.25x    frame=14538 fps= 78 q=-0.0 size=N/A time=00:10:06.35 bitrate=N/A speed=3.25x    frame=14576 fps= 78 q=-0.0 size=N/A time=00:10:07.94 bitrate=N/A speed=3.25x    frame=14624 fps= 78 q=-0.0 size=N/A time=00:10:09.94 bitrate=N/A speed=3.26x    frame=14663 fps= 78 q=-0.0 size=N/A time=00:10:11.56 bitrate=N/A speed=3.26x    frame=14708 fps= 78 q=-0.0 size=N/A time=00:10:13.44 bitrate=N/A speed=3.26x    frame=14747 fps= 78 q=-0.0 size=N/A time=00:10:15.07 bitrate=N/A speed=3.26x    frame=14793 fps= 78 q=-0.0 size=N/A time=00:10:16.99 bitrate=N/A speed=3.26x    frame=14832 fps= 78 q=-0.0 size=N/A time=00:10:18.61 bitrate=N/A speed=3.26x    frame=14879 fps= 78 q=-0.0 size=N/A time=00:10:20.57 bitrate=N/A speed=3.26x    frame=14920 fps= 78 q=-0.0 size=N/A time=00:10:22.28 bitrate=N/A speed=3.26x    frame=14964 fps= 78 q=-0.0 size=N/A time=00:10:24.12 bitrate=N/A speed=3.26x    frame=15001 fps= 78 q=-0.0 size=N/A time=00:10:25.66 bitrate=N/A speed=3.26x    frame=15045 fps= 78 q=-0.0 size=N/A time=00:10:27.50 bitrate=N/A speed=3.26x    frame=15085 fps= 78 q=-0.0 size=N/A time=00:10:29.17 bitrate=N/A speed=3.26x    frame=15130 fps= 78 q=-0.0 size=N/A time=00:10:31.04 bitrate=N/A speed=3.26x    frame=15171 fps= 78 q=-0.0 size=N/A time=00:10:32.75 bitrate=N/A speed=3.26x    frame=15215 fps= 78 q=-0.0 size=N/A time=00:10:34.59 bitrate=N/A speed=3.26x    frame=15254 fps= 78 q=-0.0 size=N/A time=00:10:36.21 bitrate=N/A speed=3.26x    frame=15297 fps= 78 q=-0.0 size=N/A time=00:10:38.01 bitrate=N/A speed=3.26x    frame=15337 fps= 78 q=-0.0 size=N/A time=00:10:39.68 bitrate=N/A speed=3.26x    frame=15377 fps= 78 q=-0.0 size=N/A time=00:10:41.34 bitrate=N/A speed=3.26x    frame=15420 fps= 78 q=-0.0 size=N/A time=00:10:43.14 bitrate=N/A speed=3.26x    frame=15463 fps= 78 q=-0.0 size=N/A time=00:10:44.93 bitrate=N/A speed=3.26x    frame=15505 fps= 78 q=-0.0 size=N/A time=00:10:46.68 bitrate=N/A speed=3.26x    frame=15547 fps= 78 q=-0.0 size=N/A time=00:10:48.43 bitrate=N/A speed=3.26x    frame=15592 fps= 78 q=-0.0 size=N/A time=00:10:50.31 bitrate=N/A speed=3.26x    frame=15631 fps= 78 q=-0.0 size=N/A time=00:10:51.94 bitrate=N/A speed=3.26x    frame=15673 fps= 78 q=-0.0 size=N/A time=00:10:53.69 bitrate=N/A speed=3.26x    frame=15712 fps= 78 q=-0.0 size=N/A time=00:10:55.32 bitrate=N/A speed=3.26x    frame=15756 fps= 78 q=-0.0 size=N/A time=00:10:57.15 bitrate=N/A speed=3.27x    frame=15792 fps= 78 q=-0.0 size=N/A time=00:10:58.65 bitrate=N/A speed=3.26x    frame=15838 fps= 78 q=-0.0 size=N/A time=00:11:00.57 bitrate=N/A speed=3.27x    frame=15874 fps= 78 q=-0.0 size=N/A time=00:11:02.07 bitrate=N/A speed=3.26x    frame=15919 fps= 78 q=-0.0 size=N/A time=00:11:03.95 bitrate=N/A speed=3.27x    frame=15955 fps= 78 q=-0.0 size=N/A time=00:11:05.45 bitrate=N/A speed=3.26x    frame=15996 fps= 78 q=-0.0 size=N/A time=00:11:07.16 bitrate=N/A speed=3.26x    frame=16033 fps= 78 q=-0.0 size=N/A time=00:11:08.70 bitrate=N/A speed=3.26x    frame=16073 fps= 78 q=-0.0 size=N/A time=00:11:10.37 bitrate=N/A speed=3.26x    frame=16109 fps= 78 q=-0.0 size=N/A time=00:11:11.87 bitrate=N/A speed=3.26x    frame=16148 fps= 78 q=-0.0 size=N/A time=00:11:13.50 bitrate=N/A speed=3.26x    frame=16184 fps= 78 q=-0.0 size=N/A time=00:11:15.00 bitrate=N/A speed=3.26x    frame=16224 fps= 78 q=-0.0 size=N/A time=00:11:16.67 bitrate=N/A speed=3.26x    frame=16260 fps= 78 q=-0.0 size=N/A time=00:11:18.17 bitrate=N/A speed=3.26x    frame=16300 fps= 78 q=-0.0 size=N/A time=00:11:19.84 bitrate=N/A speed=3.26x    frame=16339 fps= 78 q=-0.0 size=N/A time=00:11:21.47 bitrate=N/A speed=3.26x    frame=16382 fps= 78 q=-0.0 size=N/A time=00:11:23.26 bitrate=N/A speed=3.26x    frame=16419 fps= 78 q=-0.0 size=N/A time=00:11:24.80 bitrate=N/A speed=3.26x    frame=16463 fps= 78 q=-0.0 size=N/A time=00:11:26.64 bitrate=N/A speed=3.26x    frame=16501 fps= 78 q=-0.0 size=N/A time=00:11:28.22 bitrate=N/A speed=3.26x    frame=16540 fps= 78 q=-0.0 size=N/A time=00:11:29.85 bitrate=N/A speed=3.26x    frame=16576 fps= 78 q=-0.0 size=N/A time=00:11:31.35 bitrate=N/A speed=3.26x    frame=16613 fps= 78 q=-0.0 size=N/A time=00:11:32.90 bitrate=N/A speed=3.26x    frame=16654 fps= 78 q=-0.0 size=N/A time=00:11:34.61 bitrate=N/A speed=3.26x    frame=16691 fps= 78 q=-0.0 size=N/A time=00:11:36.15 bitrate=N/A speed=3.26x    frame=16729 fps= 78 q=-0.0 size=N/A time=00:11:37.73 bitrate=N/A speed=3.26x    frame=16767 fps= 78 q=-0.0 size=N/A time=00:11:39.32 bitrate=N/A speed=3.26x    frame=16804 fps= 78 q=-0.0 size=N/A time=00:11:40.86 bitrate=N/A speed=3.26x    frame=16842 fps= 78 q=-0.0 size=N/A time=00:11:42.45 bitrate=N/A speed=3.26x    frame=16884 fps= 78 q=-0.0 size=N/A time=00:11:44.20 bitrate=N/A speed=3.26x    frame=16923 fps= 78 q=-0.0 size=N/A time=00:11:45.83 bitrate=N/A speed=3.26x    frame=16967 fps= 78 q=-0.0 size=N/A time=00:11:47.66 bitrate=N/A speed=3.26x    frame=17004 fps= 78 q=-0.0 size=N/A time=00:11:49.20 bitrate=N/A speed=3.26x    frame=17049 fps= 78 q=-0.0 size=N/A time=00:11:51.08 bitrate=N/A speed=3.26x    frame=17084 fps= 78 q=-0.0 size=N/A time=00:11:52.54 bitrate=N/A speed=3.26x    frame=17128 fps= 78 q=-0.0 size=N/A time=00:11:54.38 bitrate=N/A speed=3.26x    frame=17164 fps= 78 q=-0.0 size=N/A time=00:11:55.88 bitrate=N/A speed=3.26x    frame=17205 fps= 78 q=-0.0 size=N/A time=00:11:57.59 bitrate=N/A speed=3.26x    frame=17239 fps= 78 q=-0.0 size=N/A time=00:11:59.00 bitrate=N/A speed=3.26x    frame=17281 fps= 78 q=-0.0 size=N/A time=00:12:00.76 bitrate=N/A speed=3.26x    frame=17317 fps= 78 q=-0.0 size=N/A time=00:12:02.26 bitrate=N/A speed=3.26x    frame=17360 fps= 78 q=-0.0 size=N/A time=00:12:04.05 bitrate=N/A speed=3.26x    frame=17397 fps= 78 q=-0.0 size=N/A time=00:12:05.59 bitrate=N/A speed=3.26x    frame=17440 fps= 78 q=-0.0 size=N/A time=00:12:07.39 bitrate=N/A speed=3.26x    frame=17476 fps= 78 q=-0.0 size=N/A time=00:12:08.89 bitrate=N/A speed=3.25x    frame=17519 fps= 78 q=-0.0 size=N/A time=00:12:10.68 bitrate=N/A speed=3.26x    frame=17555 fps= 78 q=-0.0 size=N/A time=00:12:12.18 bitrate=N/A speed=3.25x    frame=17598 fps= 78 q=-0.0 size=N/A time=00:12:13.98 bitrate=N/A speed=3.26x    frame=17632 fps= 78 q=-0.0 size=N/A time=00:12:15.40 bitrate=N/A speed=3.25x    frame=17671 fps= 78 q=-0.0 size=N/A time=00:12:17.02 bitrate=N/A speed=3.25x    frame=17704 fps= 78 q=-0.0 size=N/A time=00:12:18.40 bitrate=N/A speed=3.25x    frame=17736 fps= 78 q=-0.0 size=N/A time=00:12:19.73 bitrate=N/A speed=3.25x    frame=17778 fps= 78 q=-0.0 size=N/A time=00:12:21.49 bitrate=N/A speed=3.25x    frame=17818 fps= 78 q=-0.0 size=N/A time=00:12:23.15 bitrate=N/A speed=3.25x    frame=17850 fps= 78 q=-0.0 size=N/A time=00:12:24.49 bitrate=N/A speed=3.25x    frame=17882 fps= 78 q=-0.0 size=N/A time=00:12:25.82 bitrate=N/A speed=3.25x    frame=17913 fps= 78 q=-0.0 size=N/A time=00:12:27.12 bitrate=N/A speed=3.25x    frame=17946 fps= 78 q=-0.0 size=N/A time=00:12:28.49 bitrate=N/A speed=3.25x    frame=17985 fps= 78 q=-0.0 size=N/A time=00:12:30.12 bitrate=N/A speed=3.24x    frame=18022 fps= 78 q=-0.0 size=N/A time=00:12:31.66 bitrate=N/A speed=3.24x    frame=18054 fps= 78 q=-0.0 size=N/A time=00:12:33.00 bitrate=N/A speed=3.24x    frame=18090 fps= 78 q=-0.0 size=N/A time=00:12:34.50 bitrate=N/A speed=3.24x    frame=18132 fps= 78 q=-0.0 size=N/A time=00:12:36.25 bitrate=N/A speed=3.24x    frame=18167 fps= 78 q=-0.0 size=N/A time=00:12:37.71 bitrate=N/A speed=3.24x    frame=18198 fps= 78 q=-0.0 size=N/A time=00:12:39.00 bitrate=N/A speed=3.24x    frame=18229 fps= 78 q=-0.0 size=N/A time=00:12:40.30 bitrate=N/A speed=3.24x    frame=18261 fps= 78 q=-0.0 size=N/A time=00:12:41.63 bitrate=N/A speed=3.24x    frame=18296 fps= 78 q=-0.0 size=N/A time=00:12:43.09 bitrate=N/A speed=3.24x    frame=18335 fps= 78 q=-0.0 size=N/A time=00:12:44.72 bitrate=N/A speed=3.24x    frame=18370 fps= 78 q=-0.0 size=N/A time=00:12:46.18 bitrate=N/A speed=3.24x    frame=18400 fps= 78 q=-0.0 size=N/A time=00:12:47.43 bitrate=N/A speed=3.23x    frame=18439 fps= 78 q=-0.0 size=N/A time=00:12:49.05 bitrate=N/A speed=3.23x    frame=18479 fps= 78 q=-0.0 size=N/A time=00:12:50.72 bitrate=N/A speed=3.23x    frame=18511 fps= 77 q=-0.0 size=N/A time=00:12:52.06 bitrate=N/A speed=3.23x    frame=18541 fps= 77 q=-0.0 size=N/A time=00:12:53.31 bitrate=N/A speed=3.23x    frame=18571 fps= 77 q=-0.0 size=N/A time=00:12:54.56 bitrate=N/A speed=3.23x    frame=18608 fps= 77 q=-0.0 size=N/A time=00:12:56.10 bitrate=N/A speed=3.23x    frame=18643 fps= 77 q=-0.0 size=N/A time=00:12:57.56 bitrate=N/A speed=3.23x    frame=18686 fps= 77 q=-0.0 size=N/A time=00:12:59.36 bitrate=N/A speed=3.23x    frame=18717 fps= 77 q=-0.0 size=N/A time=00:13:00.65 bitrate=N/A speed=3.23x    frame=18748 fps= 77 q=-0.0 size=N/A time=00:13:01.94 bitrate=N/A speed=3.22x    frame=18784 fps= 77 q=-0.0 size=N/A time=00:13:03.44 bitrate=N/A speed=3.22x    frame=18822 fps= 77 q=-0.0 size=N/A time=00:13:05.03 bitrate=N/A speed=3.22x    frame=18852 fps= 77 q=-0.0 size=N/A time=00:13:06.28 bitrate=N/A speed=3.22x    frame=18884 fps= 77 q=-0.0 size=N/A time=00:13:07.62 bitrate=N/A speed=3.22x    frame=18923 fps= 77 q=-0.0 size=N/A time=00:13:09.24 bitrate=N/A speed=3.22x    frame=18963 fps= 77 q=-0.0 size=N/A time=00:13:10.91 bitrate=N/A speed=3.22x    frame=18995 fps= 77 q=-0.0 size=N/A time=00:13:12.24 bitrate=N/A speed=3.22x    frame=19026 fps= 77 q=-0.0 size=N/A time=00:13:13.54 bitrate=N/A speed=3.22x    frame=19057 fps= 77 q=-0.0 size=N/A time=00:13:14.83 bitrate=N/A speed=3.22x    frame=19093 fps= 77 q=-0.0 size=N/A time=00:13:16.33 bitrate=N/A speed=3.22x    frame=19127 fps= 77 q=-0.0 size=N/A time=00:13:17.75 bitrate=N/A speed=3.21x    frame=19164 fps= 77 q=-0.0 size=N/A time=00:13:19.29 bitrate=N/A speed=3.21x    frame=19197 fps= 77 q=-0.0 size=N/A time=00:13:20.67 bitrate=N/A speed=3.21x    frame=19233 fps= 77 q=-0.0 size=N/A time=00:13:22.17 bitrate=N/A speed=3.21x    frame=19270 fps= 77 q=-0.0 size=N/A time=00:13:23.71 bitrate=N/A speed=3.21x    frame=19306 fps= 77 q=-0.0 size=N/A time=00:13:25.22 bitrate=N/A speed=3.21x    frame=19339 fps= 77 q=-0.0 size=N/A time=00:13:26.59 bitrate=N/A speed=3.21x    frame=19372 fps= 77 q=-0.0 size=N/A time=00:13:27.97 bitrate=N/A speed=3.21x    frame=19413 fps= 77 q=-0.0 size=N/A time=00:13:29.68 bitrate=N/A speed=3.21x    frame=19447 fps= 77 q=-0.0 size=N/A time=00:13:31.10 bitrate=N/A speed=3.21x    frame=19479 fps= 77 q=-0.0 size=N/A time=00:13:32.43 bitrate=N/A speed=3.21x    frame=19516 fps= 77 q=-0.0 size=N/A time=00:13:33.97 bitrate=N/A speed=3.21x    frame=19556 fps= 77 q=-0.0 size=N/A time=00:13:35.64 bitrate=N/A speed=3.21x    frame=19591 fps= 77 q=-0.0 size=N/A time=00:13:37.10 bitrate=N/A speed=3.21x    frame=19622 fps= 77 q=-0.0 size=N/A time=00:13:38.40 bitrate=N/A speed= 3.2x    frame=19658 fps= 77 q=-0.0 size=N/A time=00:13:39.90 bitrate=N/A speed= 3.2x    frame=19702 fps= 77 q=-0.0 size=N/A time=00:13:41.73 bitrate=N/A speed= 3.2x    frame=19735 fps= 77 q=-0.0 size=N/A time=00:13:43.11 bitrate=N/A speed= 3.2x    frame=19777 fps= 77 q=-0.0 size=N/A time=00:13:44.86 bitrate=N/A speed= 3.2x    frame=19818 fps= 77 q=-0.0 size=N/A time=00:13:46.57 bitrate=N/A speed= 3.2x    frame=19862 fps= 77 q=-0.0 size=N/A time=00:13:48.41 bitrate=N/A speed= 3.2x    frame=19898 fps= 77 q=-0.0 size=N/A time=00:13:49.91 bitrate=N/A speed= 3.2x    frame=19941 fps= 77 q=-0.0 size=N/A time=00:13:51.70 bitrate=N/A speed= 3.2x    frame=19979 fps= 77 q=-0.0 size=N/A time=00:13:53.29 bitrate=N/A speed= 3.2x    frame=20020 fps= 77 q=-0.0 size=N/A time=00:13:55.00 bitrate=N/A speed= 3.2x    frame=20059 fps= 77 q=-0.0 size=N/A time=00:13:56.62 bitrate=N/A speed= 3.2x    frame=20100 fps= 77 q=-0.0 size=N/A time=00:13:58.33 bitrate=N/A speed= 3.2x    frame=20138 fps= 77 q=-0.0 size=N/A time=00:13:59.92 bitrate=N/A speed= 3.2x    frame=20180 fps= 77 q=-0.0 size=N/A time=00:14:01.67 bitrate=N/A speed=3.21x    frame=20221 fps= 77 q=-0.0 size=N/A time=00:14:03.38 bitrate=N/A speed=3.21x    frame=20260 fps= 77 q=-0.0 size=N/A time=00:14:05.01 bitrate=N/A speed=3.21x    frame=20301 fps= 77 q=-0.0 size=N/A time=00:14:06.72 bitrate=N/A speed=3.21x    frame=20341 fps= 77 q=-0.0 size=N/A time=00:14:08.38 bitrate=N/A speed=3.21x    frame=20382 fps= 77 q=-0.0 size=N/A time=00:14:10.09 bitrate=N/A speed=3.21x    frame=20417 fps= 77 q=-0.0 size=N/A time=00:14:11.55 bitrate=N/A speed= 3.2x    frame=20452 fps= 77 q=-0.0 size=N/A time=00:14:13.01 bitrate=N/A speed= 3.2x    frame=20493 fps= 77 q=-0.0 size=N/A time=00:14:14.72 bitrate=N/A speed= 3.2x    frame=20537 fps= 77 q=-0.0 size=N/A time=00:14:16.56 bitrate=N/A speed= 3.2x    frame=20575 fps= 77 q=-0.0 size=N/A time=00:14:18.14 bitrate=N/A speed= 3.2x    frame=20616 fps= 77 q=-0.0 size=N/A time=00:14:19.85 bitrate=N/A speed= 3.2x    frame=20650 fps= 77 q=-0.0 size=N/A time=00:14:21.27 bitrate=N/A speed= 3.2x    frame=20696 fps= 77 q=-0.0 size=N/A time=00:14:23.19 bitrate=N/A speed= 3.2x    frame=20731 fps= 77 q=-0.0 size=N/A time=00:14:24.65 bitrate=N/A speed= 3.2x    frame=20776 fps= 77 q=-0.0 size=N/A time=00:14:26.53 bitrate=N/A speed= 3.2x    frame=20809 fps= 77 q=-0.0 size=N/A time=00:14:27.90 bitrate=N/A speed= 3.2x    frame=20852 fps= 77 q=-0.0 size=N/A time=00:14:29.70 bitrate=N/A speed= 3.2x    frame=20890 fps= 77 q=-0.0 size=N/A time=00:14:31.28 bitrate=N/A speed= 3.2x    frame=20934 fps= 77 q=-0.0 size=N/A time=00:14:33.12 bitrate=N/A speed= 3.2x    frame=20971 fps= 77 q=-0.0 size=N/A time=00:14:34.66 bitrate=N/A speed= 3.2x    frame=21014 fps= 77 q=-0.0 size=N/A time=00:14:36.45 bitrate=N/A speed= 3.2x    frame=21051 fps= 77 q=-0.0 size=N/A time=00:14:38.00 bitrate=N/A speed= 3.2x    frame=21092 fps= 77 q=-0.0 size=N/A time=00:14:39.71 bitrate=N/A speed= 3.2x    frame=21128 fps= 77 q=-0.0 size=N/A time=00:14:41.21 bitrate=N/A speed= 3.2x    frame=21169 fps= 77 q=-0.0 size=N/A time=00:14:42.92 bitrate=N/A speed= 3.2x    frame=21206 fps= 77 q=-0.0 size=N/A time=00:14:44.46 bitrate=N/A speed= 3.2x    frame=21246 fps= 77 q=-0.0 size=N/A time=00:14:46.13 bitrate=N/A speed= 3.2x    frame=21284 fps= 77 q=-0.0 size=N/A time=00:14:47.72 bitrate=N/A speed= 3.2x    frame=21324 fps= 77 q=-0.0 size=N/A time=00:14:49.38 bitrate=N/A speed= 3.2x    frame=21364 fps= 77 q=-0.0 size=N/A time=00:14:51.05 bitrate=N/A speed= 3.2x    frame=21403 fps= 77 q=-0.0 size=N/A time=00:14:52.68 bitrate=N/A speed= 3.2x    frame=21443 fps= 77 q=-0.0 size=N/A time=00:14:54.35 bitrate=N/A speed= 3.2x    frame=21481 fps= 77 q=-0.0 size=N/A time=00:14:55.93 bitrate=N/A speed= 3.2x    frame=21524 fps= 77 q=-0.0 size=N/A time=00:14:57.73 bitrate=N/A speed= 3.2x    frame=21562 fps= 77 q=-0.0 size=N/A time=00:14:59.31 bitrate=N/A speed= 3.2x    frame=21605 fps= 77 q=-0.0 size=N/A time=00:15:01.10 bitrate=N/A speed= 3.2x    frame=21641 fps= 77 q=-0.0 size=N/A time=00:15:02.61 bitrate=N/A speed= 3.2x    frame=21685 fps= 77 q=-0.0 size=N/A time=00:15:04.44 bitrate=N/A speed= 3.2x    frame=21719 fps= 77 q=-0.0 size=N/A time=00:15:05.86 bitrate=N/A speed= 3.2x    frame=21763 fps= 77 q=-0.0 size=N/A time=00:15:07.69 bitrate=N/A speed= 3.2x    frame=21801 fps= 77 q=-0.0 size=N/A time=00:15:09.28 bitrate=N/A speed= 3.2x    frame=21845 fps= 77 q=-0.0 size=N/A time=00:15:11.11 bitrate=N/A speed= 3.2x    frame=21880 fps= 77 q=-0.0 size=N/A time=00:15:12.57 bitrate=N/A speed= 3.2x    frame=21922 fps= 77 q=-0.0 size=N/A time=00:15:14.33 bitrate=N/A speed= 3.2x    frame=21959 fps= 77 q=-0.0 size=N/A time=00:15:15.87 bitrate=N/A speed= 3.2x    frame=22002 fps= 77 q=-0.0 size=N/A time=00:15:17.66 bitrate=N/A speed= 3.2x    frame=22038 fps= 77 q=-0.0 size=N/A time=00:15:19.16 bitrate=N/A speed= 3.2x    frame=22080 fps= 77 q=-0.0 size=N/A time=00:15:20.92 bitrate=N/A speed= 3.2x    frame=22115 fps= 77 q=-0.0 size=N/A time=00:15:22.37 bitrate=N/A speed= 3.2x    frame=22159 fps= 77 q=-0.0 size=N/A time=00:15:24.21 bitrate=N/A speed= 3.2x    frame=22197 fps= 77 q=-0.0 size=N/A time=00:15:25.79 bitrate=N/A speed= 3.2x    frame=22239 fps= 77 q=-0.0 size=N/A time=00:15:27.55 bitrate=N/A speed= 3.2x    frame=22274 fps= 77 q=-0.0 size=N/A time=00:15:29.01 bitrate=N/A speed= 3.2x    frame=22315 fps= 77 q=-0.0 size=N/A time=00:15:30.72 bitrate=N/A speed= 3.2x    frame=22353 fps= 77 q=-0.0 size=N/A time=00:15:32.30 bitrate=N/A speed= 3.2x    frame=22396 fps= 77 q=-0.0 size=N/A time=00:15:34.09 bitrate=N/A speed= 3.2x    frame=22435 fps= 77 q=-0.0 size=N/A time=00:15:35.72 bitrate=N/A speed= 3.2x    frame=22476 fps= 77 q=-0.0 size=N/A time=00:15:37.43 bitrate=N/A speed= 3.2x    frame=22516 fps= 77 q=-0.0 size=N/A time=00:15:39.10 bitrate=N/A speed= 3.2x    frame=22557 fps= 77 q=-0.0 size=N/A time=00:15:40.81 bitrate=N/A speed= 3.2x    frame=22597 fps= 77 q=-0.0 size=N/A time=00:15:42.48 bitrate=N/A speed= 3.2x    frame=22637 fps= 77 q=-0.0 size=N/A time=00:15:44.15 bitrate=N/A speed= 3.2x    frame=22678 fps= 77 q=-0.0 size=N/A time=00:15:45.86 bitrate=N/A speed= 3.2x    frame=22718 fps= 77 q=-0.0 size=N/A time=00:15:47.52 bitrate=N/A speed= 3.2x    frame=22762 fps= 77 q=-0.0 size=N/A time=00:15:49.36 bitrate=N/A speed=3.21x    frame=22799 fps= 77 q=-0.0 size=N/A time=00:15:50.90 bitrate=N/A speed= 3.2x    frame=22840 fps= 77 q=-0.0 size=N/A time=00:15:52.61 bitrate=N/A speed= 3.2x    frame=22876 fps= 77 q=-0.0 size=N/A time=00:15:54.11 bitrate=N/A speed= 3.2x    frame=22919 fps= 77 q=-0.0 size=N/A time=00:15:55.91 bitrate=N/A speed= 3.2x    frame=22957 fps= 77 q=-0.0 size=N/A time=00:15:57.49 bitrate=N/A speed= 3.2x    frame=22998 fps= 77 q=-0.0 size=N/A time=00:15:59.20 bitrate=N/A speed=3.21x    frame=23037 fps= 77 q=-0.0 size=N/A time=00:16:00.83 bitrate=N/A speed= 3.2x    frame=23079 fps= 77 q=-0.0 size=N/A time=00:16:02.58 bitrate=N/A speed=3.21x    frame=23116 fps= 77 q=-0.0 size=N/A time=00:16:04.12 bitrate=N/A speed= 3.2x    frame=23159 fps= 77 q=-0.0 size=N/A time=00:16:05.92 bitrate=N/A speed=3.21x    frame=23198 fps= 77 q=-0.0 size=N/A time=00:16:07.54 bitrate=N/A speed=3.21x    frame=23241 fps= 77 q=-0.0 size=N/A time=00:16:09.34 bitrate=N/A speed=3.21x    frame=23279 fps= 77 q=-0.0 size=N/A time=00:16:10.92 bitrate=N/A speed=3.21x    frame=23324 fps= 77 q=-0.0 size=N/A time=00:16:12.80 bitrate=N/A speed=3.21x    frame=23359 fps= 77 q=-0.0 size=N/A time=00:16:14.26 bitrate=N/A speed=3.21x    frame=23403 fps= 77 q=-0.0 size=N/A time=00:16:16.10 bitrate=N/A speed=3.21x    frame=23440 fps= 77 q=-0.0 size=N/A time=00:16:17.64 bitrate=N/A speed=3.21x    frame=23483 fps= 77 q=-0.0 size=N/A time=00:16:19.43 bitrate=N/A speed=3.21x    frame=23519 fps= 77 q=-0.0 size=N/A time=00:16:20.93 bitrate=N/A speed=3.21x    frame=23564 fps= 77 q=-0.0 size=N/A time=00:16:22.81 bitrate=N/A speed=3.21x    frame=23605 fps= 77 q=-0.0 size=N/A time=00:16:24.52 bitrate=N/A speed=3.21x    frame=23649 fps= 77 q=-0.0 size=N/A time=00:16:26.36 bitrate=N/A speed=3.21x    frame=23688 fps= 77 q=-0.0 size=N/A time=00:16:27.98 bitrate=N/A speed=3.21x    frame=23728 fps= 77 q=-0.0 size=N/A time=00:16:29.65 bitrate=N/A speed=3.21x    frame=23770 fps= 77 q=-0.0 size=N/A time=00:16:31.40 bitrate=N/A speed=3.21x    frame=23810 fps= 77 q=-0.0 size=N/A time=00:16:33.07 bitrate=N/A speed=3.21x    frame=23850 fps= 77 q=-0.0 size=N/A time=00:16:34.74 bitrate=N/A speed=3.21x    frame=23890 fps= 77 q=-0.0 size=N/A time=00:16:36.41 bitrate=N/A speed=3.21x    frame=23933 fps= 77 q=-0.0 size=N/A time=00:16:38.20 bitrate=N/A speed=3.21x    frame=23972 fps= 77 q=-0.0 size=N/A time=00:16:39.83 bitrate=N/A speed=3.21x    frame=24013 fps= 77 q=-0.0 size=N/A time=00:16:41.54 bitrate=N/A speed=3.21x    frame=24054 fps= 77 q=-0.0 size=N/A time=00:16:43.25 bitrate=N/A speed=3.21x    frame=24097 fps= 77 q=-0.0 size=N/A time=00:16:45.04 bitrate=N/A speed=3.21x    frame=24136 fps= 77 q=-0.0 size=N/A time=00:16:46.67 bitrate=N/A speed=3.21x    frame=24177 fps= 77 q=-0.0 size=N/A time=00:16:48.38 bitrate=N/A speed=3.21x    frame=24215 fps= 77 q=-0.0 size=N/A time=00:16:49.96 bitrate=N/A speed=3.21x    frame=24259 fps= 77 q=-0.0 size=N/A time=00:16:51.80 bitrate=N/A speed=3.21x    frame=24295 fps= 77 q=-0.0 size=N/A time=00:16:53.30 bitrate=N/A speed=3.21x    frame=24342 fps= 77 q=-0.0 size=N/A time=00:16:55.26 bitrate=N/A speed=3.21x    frame=24377 fps= 77 q=-0.0 size=N/A time=00:16:56.72 bitrate=N/A speed=3.21x    frame=24421 fps= 77 q=-0.0 size=N/A time=00:16:58.55 bitrate=N/A speed=3.21x    frame=24456 fps= 77 q=-0.0 size=N/A time=00:17:00.01 bitrate=N/A speed=3.21x    frame=24503 fps= 77 q=-0.0 size=N/A time=00:17:01.97 bitrate=N/A speed=3.21x    frame=24540 fps= 77 q=-0.0 size=N/A time=00:17:03.52 bitrate=N/A speed=3.21x    frame=24583 fps= 77 q=-0.0 size=N/A time=00:17:05.31 bitrate=N/A speed=3.21x    frame=24621 fps= 77 q=-0.0 size=N/A time=00:17:06.90 bitrate=N/A speed=3.21x    frame=24666 fps= 77 q=-0.0 size=N/A time=00:17:08.77 bitrate=N/A speed=3.21x    frame=24701 fps= 77 q=-0.0 size=N/A time=00:17:10.23 bitrate=N/A speed=3.21x    frame=24746 fps= 77 q=-0.0 size=N/A time=00:17:12.11 bitrate=N/A speed=3.21x    frame=24783 fps= 77 q=-0.0 size=N/A time=00:17:13.65 bitrate=N/A speed=3.21x    frame=24826 fps= 77 q=-0.0 size=N/A time=00:17:15.45 bitrate=N/A speed=3.21x    frame=24865 fps= 77 q=-0.0 size=N/A time=00:17:17.07 bitrate=N/A speed=3.21x    frame=24903 fps= 77 q=-0.0 size=N/A time=00:17:18.66 bitrate=N/A speed=3.21x    frame=24941 fps= 77 q=-0.0 size=N/A time=00:17:20.24 bitrate=N/A speed=3.21x    frame=24981 fps= 77 q=-0.0 size=N/A time=00:17:21.91 bitrate=N/A speed=3.21x    frame=25019 fps= 77 q=-0.0 size=N/A time=00:17:23.50 bitrate=N/A speed=3.21x    frame=25059 fps= 77 q=-0.0 size=N/A time=00:17:25.16 bitrate=N/A speed=3.21x    frame=25098 fps= 77 q=-0.0 size=N/A time=00:17:26.79 bitrate=N/A speed=3.21x    frame=25140 fps= 77 q=-0.0 size=N/A time=00:17:28.54 bitrate=N/A speed=3.21x    frame=25182 fps= 77 q=-0.0 size=N/A time=00:17:30.29 bitrate=N/A speed=3.21x    frame=25222 fps= 77 q=-0.0 size=N/A time=00:17:31.96 bitrate=N/A speed=3.21x    frame=25264 fps= 77 q=-0.0 size=N/A time=00:17:33.71 bitrate=N/A speed=3.21x    frame=25302 fps= 77 q=-0.0 size=N/A time=00:17:35.30 bitrate=N/A speed=3.21x    frame=25345 fps= 77 q=-0.0 size=N/A time=00:17:37.09 bitrate=N/A speed=3.21x    frame=25383 fps= 77 q=-0.0 size=N/A time=00:17:38.68 bitrate=N/A speed=3.21x    frame=25428 fps= 77 q=-0.0 size=N/A time=00:17:40.55 bitrate=N/A speed=3.21x    frame=25465 fps= 77 q=-0.0 size=N/A time=00:17:42.10 bitrate=N/A speed=3.21x    frame=25508 fps= 77 q=-0.0 size=N/A time=00:17:43.89 bitrate=N/A speed=3.21x    frame=25545 fps= 77 q=-0.0 size=N/A time=00:17:45.43 bitrate=N/A speed=3.21x    frame=25592 fps= 77 q=-0.0 size=N/A time=00:17:47.39 bitrate=N/A speed=3.21x    frame=25626 fps= 77 q=-0.0 size=N/A time=00:17:48.81 bitrate=N/A speed=3.21x    frame=25666 fps= 77 q=-0.0 size=N/A time=00:17:50.48 bitrate=N/A speed=3.21x    frame=25699 fps= 77 q=-0.0 size=N/A time=00:17:51.86 bitrate=N/A speed=3.21x    frame=25737 fps= 77 q=-0.0 size=N/A time=00:17:53.44 bitrate=N/A speed=3.21x    frame=25774 fps= 77 q=-0.0 size=N/A time=00:17:54.99 bitrate=N/A speed=3.21x    frame=25815 fps= 77 q=-0.0 size=N/A time=00:17:56.70 bitrate=N/A speed=3.21x    frame=25848 fps= 77 q=-0.0 size=N/A time=00:17:58.07 bitrate=N/A speed=3.21x    frame=25893 fps= 77 q=-0.0 size=N/A time=00:17:59.95 bitrate=N/A speed=3.21x    frame=25931 fps= 77 q=-0.0 size=N/A time=00:18:01.53 bitrate=N/A speed=3.21x    frame=25974 fps= 77 q=-0.0 size=N/A time=00:18:03.33 bitrate=N/A speed=3.21x    frame=26010 fps= 77 q=-0.0 size=N/A time=00:18:04.83 bitrate=N/A speed=3.21x    frame=26052 fps= 77 q=-0.0 size=N/A time=00:18:06.58 bitrate=N/A speed=3.21x    frame=26088 fps= 77 q=-0.0 size=N/A time=00:18:08.08 bitrate=N/A speed=3.21x    frame=26130 fps= 77 q=-0.0 size=N/A time=00:18:09.83 bitrate=N/A speed=3.21x    frame=26167 fps= 77 q=-0.0 size=N/A time=00:18:11.38 bitrate=N/A speed=3.21x    frame=26211 fps= 77 q=-0.0 size=N/A time=00:18:13.21 bitrate=N/A speed=3.21x    frame=26248 fps= 77 q=-0.0 size=N/A time=00:18:14.76 bitrate=N/A speed=3.21x    frame=26288 fps= 77 q=-0.0 size=N/A time=00:18:16.42 bitrate=N/A speed=3.21x    frame=26329 fps= 77 q=-0.0 size=N/A time=00:18:18.13 bitrate=N/A speed=3.21x    frame=26367 fps= 77 q=-0.0 size=N/A time=00:18:19.72 bitrate=N/A speed=3.21x    frame=26407 fps= 77 q=-0.0 size=N/A time=00:18:21.39 bitrate=N/A speed=3.21x    frame=26445 fps= 77 q=-0.0 size=N/A time=00:18:22.97 bitrate=N/A speed=3.21x    frame=26485 fps= 77 q=-0.0 size=N/A time=00:18:24.64 bitrate=N/A speed=3.21x    frame=26525 fps= 77 q=-0.0 size=N/A time=00:18:26.31 bitrate=N/A speed=3.21x    frame=26566 fps= 77 q=-0.0 size=N/A time=00:18:28.02 bitrate=N/A speed=3.21x    frame=26603 fps= 77 q=-0.0 size=N/A time=00:18:29.56 bitrate=N/A speed=3.21x    frame=26646 fps= 77 q=-0.0 size=N/A time=00:18:31.36 bitrate=N/A speed=3.21x    frame=26686 fps= 77 q=-0.0 size=N/A time=00:18:33.02 bitrate=N/A speed=3.21x    frame=26728 fps= 77 q=-0.0 size=N/A time=00:18:34.78 bitrate=N/A speed=3.21x    frame=26764 fps= 77 q=-0.0 size=N/A time=00:18:36.28 bitrate=N/A speed=3.21x    frame=26808 fps= 77 q=-0.0 size=N/A time=00:18:38.11 bitrate=N/A speed=3.21x    frame=26845 fps= 77 q=-0.0 size=N/A time=00:18:39.66 bitrate=N/A speed=3.21x    frame=26888 fps= 77 q=-0.0 size=N/A time=00:18:41.45 bitrate=N/A speed=3.21x    frame=26923 fps= 77 q=-0.0 size=N/A time=00:18:42.91 bitrate=N/A speed=3.21x    frame=26966 fps= 77 q=-0.0 size=N/A time=00:18:44.70 bitrate=N/A speed=3.21x    frame=27004 fps= 77 q=-0.0 size=N/A time=00:18:46.29 bitrate=N/A speed=3.21x    frame=27050 fps= 77 q=-0.0 size=N/A time=00:18:48.21 bitrate=N/A speed=3.21x    frame=27084 fps= 77 q=-0.0 size=N/A time=00:18:49.62 bitrate=N/A speed=3.21x    frame=27129 fps= 77 q=-0.0 size=N/A time=00:18:51.50 bitrate=N/A speed=3.21x    frame=27166 fps= 77 q=-0.0 size=N/A time=00:18:53.04 bitrate=N/A speed=3.21x    frame=27211 fps= 77 q=-0.0 size=N/A time=00:18:54.92 bitrate=N/A speed=3.21x    frame=27247 fps= 77 q=-0.0 size=N/A time=00:18:56.42 bitrate=N/A speed=3.21x    frame=27288 fps= 77 q=-0.0 size=N/A time=00:18:58.13 bitrate=N/A speed=3.21x    frame=27324 fps= 77 q=-0.0 size=N/A time=00:18:59.63 bitrate=N/A speed=3.21x    frame=27365 fps= 77 q=-0.0 size=N/A time=00:19:01.34 bitrate=N/A speed=3.21x    frame=27404 fps= 77 q=-0.0 size=N/A time=00:19:02.97 bitrate=N/A speed=3.21x    frame=27445 fps= 77 q=-0.0 size=N/A time=00:19:04.68 bitrate=N/A speed=3.21x    frame=27487 fps= 77 q=-0.0 size=N/A time=00:19:06.43 bitrate=N/A speed=3.21x    frame=27528 fps= 77 q=-0.0 size=N/A time=00:19:08.14 bitrate=N/A speed=3.21x    frame=27568 fps= 77 q=-0.0 size=N/A time=00:19:09.81 bitrate=N/A speed=3.21x    frame=27608 fps= 77 q=-0.0 size=N/A time=00:19:11.48 bitrate=N/A speed=3.21x    frame=27649 fps= 77 q=-0.0 size=N/A time=00:19:13.19 bitrate=N/A speed=3.21x    frame=27687 fps= 77 q=-0.0 size=N/A time=00:19:14.77 bitrate=N/A speed=3.21x    frame=27728 fps= 77 q=-0.0 size=N/A time=00:19:16.48 bitrate=N/A speed=3.21x    frame=27767 fps= 77 q=-0.0 size=N/A time=00:19:18.11 bitrate=N/A speed=3.21x    frame=27807 fps= 77 q=-0.0 size=N/A time=00:19:19.78 bitrate=N/A speed=3.21x    frame=27846 fps= 77 q=-0.0 size=N/A time=00:19:21.41 bitrate=N/A speed=3.21x    frame=27885 fps= 77 q=-0.0 size=N/A time=00:19:23.03 bitrate=N/A speed=3.21x    frame=27922 fps= 77 q=-0.0 size=N/A time=00:19:24.58 bitrate=N/A speed=3.21x    frame=27966 fps= 77 q=-0.0 size=N/A time=00:19:26.41 bitrate=N/A speed=3.21x    frame=28004 fps= 77 q=-0.0 size=N/A time=00:19:28.00 bitrate=N/A speed=3.21x    frame=28046 fps= 77 q=-0.0 size=N/A time=00:19:29.75 bitrate=N/A speed=3.21x    frame=28083 fps= 77 q=-0.0 size=N/A time=00:19:31.29 bitrate=N/A speed=3.21x    frame=28129 fps= 77 q=-0.0 size=N/A time=00:19:33.21 bitrate=N/A speed=3.21x    frame=28165 fps= 77 q=-0.0 size=N/A time=00:19:34.71 bitrate=N/A speed=3.21x    frame=28211 fps= 77 q=-0.0 size=N/A time=00:19:36.63 bitrate=N/A speed=3.21x    frame=28248 fps= 77 q=-0.0 size=N/A time=00:19:38.17 bitrate=N/A speed=3.21x    frame=28292 fps= 77 q=-0.0 size=N/A time=00:19:40.01 bitrate=N/A speed=3.21x    frame=28330 fps= 77 q=-0.0 size=N/A time=00:19:41.59 bitrate=N/A speed=3.21x    frame=28374 fps= 77 q=-0.0 size=N/A time=00:19:43.43 bitrate=N/A speed=3.21x    frame=28412 fps= 77 q=-0.0 size=N/A time=00:19:45.01 bitrate=N/A speed=3.21x    frame=28456 fps= 77 q=-0.0 size=N/A time=00:19:46.85 bitrate=N/A speed=3.21x    frame=28495 fps= 77 q=-0.0 size=N/A time=00:19:48.47 bitrate=N/A speed=3.21x    frame=28539 fps= 77 q=-0.0 size=N/A time=00:19:50.31 bitrate=N/A speed=3.21x    frame=28577 fps= 77 q=-0.0 size=N/A time=00:19:51.89 bitrate=N/A speed=3.21x    frame=28619 fps= 77 q=-0.0 size=N/A time=00:19:53.65 bitrate=N/A speed=3.21x    frame=28655 fps= 77 q=-0.0 size=N/A time=00:19:55.15 bitrate=N/A speed=3.21x    frame=28698 fps= 77 q=-0.0 size=N/A time=00:19:56.94 bitrate=N/A speed=3.21x    frame=28737 fps= 77 q=-0.0 size=N/A time=00:19:58.57 bitrate=N/A speed=3.21x    frame=28779 fps= 77 q=-0.0 size=N/A time=00:20:00.32 bitrate=N/A speed=3.21x    frame=28817 fps= 77 q=-0.0 size=N/A time=00:20:01.90 bitrate=N/A speed=3.21x    frame=28858 fps= 77 q=-0.0 size=N/A time=00:20:03.61 bitrate=N/A speed=3.21x    frame=28898 fps= 77 q=-0.0 size=N/A time=00:20:05.28 bitrate=N/A speed=3.21x    frame=28939 fps= 77 q=-0.0 size=N/A time=00:20:06.99 bitrate=N/A speed=3.21x    frame=28979 fps= 77 q=-0.0 size=N/A time=00:20:08.66 bitrate=N/A speed=3.21x    frame=29017 fps= 77 q=-0.0 size=N/A time=00:20:10.25 bitrate=N/A speed=3.21x    frame=29057 fps= 77 q=-0.0 size=N/A time=00:20:11.91 bitrate=N/A speed=3.21x    frame=29095 fps= 77 q=-0.0 size=N/A time=00:20:13.50 bitrate=N/A speed=3.21x    frame=29135 fps= 77 q=-0.0 size=N/A time=00:20:15.17 bitrate=N/A speed=3.21x    frame=29174 fps= 77 q=-0.0 size=N/A time=00:20:16.79 bitrate=N/A speed=3.21x    frame=29214 fps= 77 q=-0.0 size=N/A time=00:20:18.46 bitrate=N/A speed=3.21x    frame=29252 fps= 77 q=-0.0 size=N/A time=00:20:20.05 bitrate=N/A speed=3.21x    frame=29296 fps= 77 q=-0.0 size=N/A time=00:20:21.88 bitrate=N/A speed=3.21x    frame=29332 fps= 77 q=-0.0 size=N/A time=00:20:23.38 bitrate=N/A speed=3.21x    frame=29376 fps= 77 q=-0.0 size=N/A time=00:20:25.22 bitrate=N/A speed=3.21x    frame=29413 fps= 77 q=-0.0 size=N/A time=00:20:26.76 bitrate=N/A speed=3.21x    frame=29460 fps= 77 q=-0.0 size=N/A time=00:20:28.72 bitrate=N/A speed=3.21x    frame=29495 fps= 77 q=-0.0 size=N/A time=00:20:30.18 bitrate=N/A speed=3.21x    frame=29541 fps= 77 q=-0.0 size=N/A time=00:20:32.10 bitrate=N/A speed=3.21x    frame=29577 fps= 77 q=-0.0 size=N/A time=00:20:33.60 bitrate=N/A speed=3.21x    frame=29621 fps= 77 q=-0.0 size=N/A time=00:20:35.44 bitrate=N/A speed=3.21x    frame=29655 fps= 77 q=-0.0 size=N/A time=00:20:36.86 bitrate=N/A speed=3.21x    frame=29699 fps= 77 q=-0.0 size=N/A time=00:20:38.69 bitrate=N/A speed=3.21x    frame=29736 fps= 77 q=-0.0 size=N/A time=00:20:40.23 bitrate=N/A speed=3.21x    frame=29780 fps= 77 q=-0.0 size=N/A time=00:20:42.07 bitrate=N/A speed=3.21x    frame=29815 fps= 77 q=-0.0 size=N/A time=00:20:43.53 bitrate=N/A speed=3.21x    frame=29859 fps= 77 q=-0.0 size=N/A time=00:20:45.36 bitrate=N/A speed=3.21x    frame=29896 fps= 77 q=-0.0 size=N/A time=00:20:46.91 bitrate=N/A speed=3.21x    frame=29937 fps= 77 q=-0.0 size=N/A time=00:20:48.62 bitrate=N/A speed=3.21x    frame=29975 fps= 77 q=-0.0 size=N/A time=00:20:50.20 bitrate=N/A speed=3.21x    frame=30018 fps= 77 q=-0.0 size=N/A time=00:20:52.00 bitrate=N/A speed=3.21x    frame=30058 fps= 77 q=-0.0 size=N/A time=00:20:53.66 bitrate=N/A speed=3.21x    frame=30100 fps= 77 q=-0.0 size=N/A time=00:20:55.42 bitrate=N/A speed=3.21x    frame=30138 fps= 77 q=-0.0 size=N/A time=00:20:57.00 bitrate=N/A speed=3.21x    frame=30178 fps= 77 q=-0.0 size=N/A time=00:20:58.67 bitrate=N/A speed=3.21x    frame=30217 fps= 77 q=-0.0 size=N/A time=00:21:00.30 bitrate=N/A speed=3.21x    frame=30257 fps= 77 q=-0.0 size=N/A time=00:21:01.96 bitrate=N/A speed=3.21x    frame=30298 fps= 77 q=-0.0 size=N/A time=00:21:03.67 bitrate=N/A speed=3.21x    frame=30339 fps= 77 q=-0.0 size=N/A time=00:21:05.38 bitrate=N/A speed=3.21x    frame=30379 fps= 77 q=-0.0 size=N/A time=00:21:07.05 bitrate=N/A speed=3.21x    frame=30416 fps= 77 q=-0.0 size=N/A time=00:21:08.60 bitrate=N/A speed=3.21x    frame=30456 fps= 77 q=-0.0 size=N/A time=00:21:10.26 bitrate=N/A speed=3.21x    frame=30493 fps= 77 q=-0.0 size=N/A time=00:21:11.81 bitrate=N/A speed=3.21x    frame=30537 fps= 77 q=-0.0 size=N/A time=00:21:13.64 bitrate=N/A speed=3.21x    frame=30574 fps= 77 q=-0.0 size=N/A time=00:21:15.19 bitrate=N/A speed=3.21x    frame=30618 fps= 77 q=-0.0 size=N/A time=00:21:17.02 bitrate=N/A speed=3.21x    frame=30654 fps= 77 q=-0.0 size=N/A time=00:21:18.52 bitrate=N/A speed=3.21x    frame=30698 fps= 77 q=-0.0 size=N/A time=00:21:20.36 bitrate=N/A speed=3.21x    frame=30737 fps= 77 q=-0.0 size=N/A time=00:21:21.98 bitrate=N/A speed=3.21x    frame=30780 fps= 77 q=-0.0 size=N/A time=00:21:23.78 bitrate=N/A speed=3.21x    frame=30818 fps= 77 q=-0.0 size=N/A time=00:21:25.36 bitrate=N/A speed=3.21x    frame=30859 fps= 77 q=-0.0 size=N/A time=00:21:27.07 bitrate=N/A speed=3.21x    frame=30896 fps= 77 q=-0.0 size=N/A time=00:21:28.62 bitrate=N/A speed=3.21x    frame=30939 fps= 77 q=-0.0 size=N/A time=00:21:30.41 bitrate=N/A speed=3.21x    frame=30977 fps= 77 q=-0.0 size=N/A time=00:21:31.99 bitrate=N/A speed=3.21x    frame=31023 fps= 77 q=-0.0 size=N/A time=00:21:33.91 bitrate=N/A speed=3.21x    frame=31061 fps= 77 q=-0.0 size=N/A time=00:21:35.50 bitrate=N/A speed=3.21x    frame=31106 fps= 77 q=-0.0 size=N/A time=00:21:37.37 bitrate=N/A speed=3.22x    frame=31143 fps= 77 q=-0.0 size=N/A time=00:21:38.92 bitrate=N/A speed=3.22x    frame=31187 fps= 77 q=-0.0 size=N/A time=00:21:40.75 bitrate=N/A speed=3.22x    frame=31226 fps= 77 q=-0.0 size=N/A time=00:21:42.38 bitrate=N/A speed=3.22x    frame=31267 fps= 77 q=-0.0 size=N/A time=00:21:44.09 bitrate=N/A speed=3.22x    frame=31306 fps= 77 q=-0.0 size=N/A time=00:21:45.72 bitrate=N/A speed=3.22x    frame=31344 fps= 77 q=-0.0 size=N/A time=00:21:47.30 bitrate=N/A speed=3.22x    frame=31383 fps= 77 q=-0.0 size=N/A time=00:21:48.93 bitrate=N/A speed=3.22x    frame=31423 fps= 77 q=-0.0 size=N/A time=00:21:50.60 bitrate=N/A speed=3.22x    frame=31464 fps= 77 q=-0.0 size=N/A time=00:21:52.31 bitrate=N/A speed=3.22x    frame=31504 fps= 77 q=-0.0 size=N/A time=00:21:53.97 bitrate=N/A speed=3.22x    frame=31546 fps= 77 q=-0.0 size=N/A time=00:21:55.73 bitrate=N/A speed=3.22x    frame=31584 fps= 77 q=-0.0 size=N/A time=00:21:57.31 bitrate=N/A speed=3.22x    frame=31625 fps= 77 q=-0.0 size=N/A time=00:21:59.02 bitrate=N/A speed=3.22x    frame=31664 fps= 77 q=-0.0 size=N/A time=00:22:00.65 bitrate=N/A speed=3.22x    frame=31707 fps= 77 q=-0.0 size=N/A time=00:22:02.44 bitrate=N/A speed=3.22x    frame=31745 fps= 77 q=-0.0 size=N/A time=00:22:04.03 bitrate=N/A speed=3.22x    frame=31789 fps= 77 q=-0.0 size=N/A time=00:22:05.86 bitrate=N/A speed=3.22x    frame=31828 fps= 77 q=-0.0 size=N/A time=00:22:07.49 bitrate=N/A speed=3.22x    frame=31872 fps= 77 q=-0.0 size=N/A time=00:22:09.32 bitrate=N/A speed=3.22x    frame=31909 fps= 77 q=-0.0 size=N/A time=00:22:10.87 bitrate=N/A speed=3.22x    frame=31957 fps= 77 q=-0.0 size=N/A time=00:22:12.87 bitrate=N/A speed=3.22x    frame=31993 fps= 77 q=-0.0 size=N/A time=00:22:14.37 bitrate=N/A speed=3.22x    frame=32040 fps= 77 q=-0.0 size=N/A time=00:22:16.33 bitrate=N/A speed=3.22x    frame=32075 fps= 77 q=-0.0 size=N/A time=00:22:17.79 bitrate=N/A speed=3.22x    frame=32119 fps= 77 q=-0.0 size=N/A time=00:22:19.62 bitrate=N/A speed=3.22x    frame=32153 fps= 77 q=-0.0 size=N/A time=00:22:21.04 bitrate=N/A speed=3.22x    frame=32197 fps= 77 q=-0.0 size=N/A time=00:22:22.88 bitrate=N/A speed=3.22x    frame=32235 fps= 77 q=-0.0 size=N/A time=00:22:24.46 bitrate=N/A speed=3.22x    frame=32278 fps= 77 q=-0.0 size=N/A time=00:22:26.26 bitrate=N/A speed=3.22x    frame=32317 fps= 77 q=-0.0 size=N/A time=00:22:27.88 bitrate=N/A speed=3.22x    frame=32359 fps= 77 q=-0.0 size=N/A time=00:22:29.63 bitrate=N/A speed=3.22x    frame=32396 fps= 77 q=-0.0 size=N/A time=00:22:31.18 bitrate=N/A speed=3.22x    frame=32444 fps= 77 q=-0.0 size=N/A time=00:22:33.18 bitrate=N/A speed=3.22x    frame=32481 fps= 77 q=-0.0 size=N/A time=00:22:34.72 bitrate=N/A speed=3.22x    frame=32524 fps= 77 q=-0.0 size=N/A time=00:22:36.52 bitrate=N/A speed=3.22x    frame=32565 fps= 77 q=-0.0 size=N/A time=00:22:38.23 bitrate=N/A speed=3.22x    frame=32608 fps= 77 q=-0.0 size=N/A time=00:22:40.02 bitrate=N/A speed=3.22x    frame=32647 fps= 77 q=-0.0 size=N/A time=00:22:41.65 bitrate=N/A speed=3.22x    frame=32689 fps= 77 q=-0.0 size=N/A time=00:22:43.40 bitrate=N/A speed=3.22x    frame=32731 fps= 77 q=-0.0 size=N/A time=00:22:45.15 bitrate=N/A speed=3.22x    frame=32771 fps= 77 q=-0.0 size=N/A time=00:22:46.82 bitrate=N/A speed=3.22x    frame=32815 fps= 77 q=-0.0 size=N/A time=00:22:48.65 bitrate=N/A speed=3.22x    frame=32855 fps= 77 q=-0.0 size=N/A time=00:22:50.32 bitrate=N/A speed=3.22x    frame=32897 fps= 77 q=-0.0 size=N/A time=00:22:52.07 bitrate=N/A speed=3.22x    frame=32936 fps= 77 q=-0.0 size=N/A time=00:22:53.70 bitrate=N/A speed=3.22x    frame=32979 fps= 77 q=-0.0 size=N/A time=00:22:55.49 bitrate=N/A speed=3.22x    frame=33019 fps= 77 q=-0.0 size=N/A time=00:22:57.16 bitrate=N/A speed=3.22x    frame=33063 fps= 77 q=-0.0 size=N/A time=00:22:59.00 bitrate=N/A speed=3.22x    frame=33101 fps= 77 q=-0.0 size=N/A time=00:23:00.58 bitrate=N/A speed=3.22x    frame=33144 fps= 77 q=-0.0 size=N/A time=00:23:02.38 bitrate=N/A speed=3.22x    frame=33181 fps= 77 q=-0.0 size=N/A time=00:23:03.92 bitrate=N/A speed=3.22x    frame=33226 fps= 77 q=-0.0 size=N/A time=00:23:05.80 bitrate=N/A speed=3.22x    frame=33261 fps= 77 q=-0.0 size=N/A time=00:23:07.26 bitrate=N/A speed=3.22x    frame=33305 fps= 77 q=-0.0 size=N/A time=00:23:09.09 bitrate=N/A speed=3.22x    frame=33343 fps= 77 q=-0.0 size=N/A time=00:23:10.68 bitrate=N/A speed=3.22x    frame=33388 fps= 77 q=-0.0 size=N/A time=00:23:12.55 bitrate=N/A speed=3.22x    frame=33425 fps= 77 q=-0.0 size=N/A time=00:23:14.10 bitrate=N/A speed=3.22x    frame=33470 fps= 77 q=-0.0 size=N/A time=00:23:15.97 bitrate=N/A speed=3.22x    frame=33507 fps= 77 q=-0.0 size=N/A time=00:23:17.52 bitrate=N/A speed=3.22x    frame=33551 fps= 77 q=-0.0 size=N/A time=00:23:19.35 bitrate=N/A speed=3.22x    frame=33589 fps= 77 q=-0.0 size=N/A time=00:23:20.94 bitrate=N/A speed=3.22x    frame=33633 fps= 77 q=-0.0 size=N/A time=00:23:22.77 bitrate=N/A speed=3.22x    frame=33670 fps= 77 q=-0.0 size=N/A time=00:23:24.31 bitrate=N/A speed=3.22x    frame=33715 fps= 77 q=-0.0 size=N/A time=00:23:26.19 bitrate=N/A speed=3.22x    frame=33753 fps= 77 q=-0.0 size=N/A time=00:23:27.78 bitrate=N/A speed=3.22x    frame=33799 fps= 77 q=-0.0 size=N/A time=00:23:29.69 bitrate=N/A speed=3.22x    frame=33839 fps= 77 q=-0.0 size=N/A time=00:23:31.36 bitrate=N/A speed=3.22x    frame=33882 fps= 77 q=-0.0 size=N/A time=00:23:33.16 bitrate=N/A speed=3.22x    frame=33922 fps= 77 q=-0.0 size=N/A time=00:23:34.83 bitrate=N/A speed=3.22x    frame=33964 fps= 77 q=-0.0 size=N/A time=00:23:36.58 bitrate=N/A speed=3.22x    frame=34005 fps= 77 q=-0.0 size=N/A time=00:23:38.29 bitrate=N/A speed=3.22x    [Parsed_libvmaf_10 @ 000001890d31d800] VMAF score: 95.239281
[out#0/null @ 0000018909855c80] video:14630KiB audio:266272KiB subtitle:0KiB other streams:0KiB global headers:0KiB muxing overhead: unknown
frame=34047 fps= 77 q=-0.0 Lsize=N/A time=00:23:40.04 bitrate=N/A speed=3.21x    
